<svg width="3621" height="1407" xmlns="http://www.w3.org/2000/svg" xmlns:xlink="http://www.w3.org/1999/xlink" xml:space="preserve" overflow="hidden"><defs><clipPath id="clip0"><rect x="30882" y="20611" width="3621" height="1407"/></clipPath><clipPath id="clip1"><rect x="30882" y="20611" width="3621" height="1407"/></clipPath></defs><g clip-path="url(#clip0)" transform="translate(-30882 -20611)"><g clip-path="url(#clip1)"><rect x="30884" y="20615" width="3615" height="1398" fill="#FFFFFF" fill-opacity="1"/><g><path d="M30993.5 21720.2 34448.5 21720.2M30993.5 21533.2 34448.5 21533.2M30993.5 21346.2 34448.5 21346.2M30993.5 21159.2 34448.5 21159.2M30993.5 20972.2 34448.5 20972.2M30993.5 20785.5 34448.5 20785.5" stroke="#D9D9D9" stroke-width="3.4375" stroke-linecap="butt" stroke-linejoin="round" stroke-miterlimit="10" stroke-opacity="1" fill="none" fill-rule="nonzero"/></g><g><path d="M30993.5 21906.5 34448.5 21906.5" stroke="#D9D9D9" stroke-width="3.4375" stroke-linecap="butt" stroke-linejoin="round" stroke-miterlimit="10" stroke-opacity="1" fill="none" fill-rule="evenodd"/></g><g><path d="M31048 21603.7 31156 21581.7 31264 21647.7 31372 21493.7 31480 21674.7 31587 21686.7 31695 21692.7 31803 21473.7 31911 21703.7 32019.1 21699.7 32127.1 21736.7 32235.1 21643.7 32343.1 21745 32451.1 21700.7 32559.1 21714.7 32667.1 21509.7 32775.1 21724.7 32883.1 21702.7 32991.1 21734.7 33099.1 21565.7 33207.1 21724.7 33315.1 21667.7 33423.1 21665.7 33531.1 21234 33639.1 21670.7 33747.1 21669.7 33855.1 21707.7 33963.1 21556.7 34071.1 21697.7 34178.1 21647.7 34286.1 21660.7 34395 21383.7" stroke="#1F497D" stroke-width="10.3125" stroke-linecap="round" stroke-linejoin="round" stroke-miterlimit="10" stroke-opacity="1" fill="none" fill-rule="nonzero"/></g><g><path d="M31048.6 21810.6 31069.1 21813.1C31071.9 21813.4 31073.9 21816 31073.6 21818.8 31073.3 21821.6 31070.7 21823.6 31067.9 21823.3L31047.4 21820.8C31044.6 21820.5 31042.5 21817.9 31042.9 21815.1 31043.2 21812.3 31045.8 21810.3 31048.6 21810.6ZM31089.6 21815.5 31110 21818C31112.9 21818.3 31114.9 21820.9 31114.6 21823.7 31114.2 21826.6 31111.6 21828.6 31108.8 21828.2L31088.3 21825.8C31085.5 21825.4 31083.5 21822.9 31083.8 21820 31084.2 21817.2 31086.7 21815.2 31089.6 21815.5ZM31130.5 21820.5 31151 21822.9C31153.8 21823.3 31155.8 21825.8 31155.5 21828.7 31155.2 21831.5 31152.6 21833.5 31149.8 21833.2L31129.3 21830.7C31126.5 21830.4 31124.4 21827.8 31124.8 21825 31125.1 21822.1 31127.7 21820.1 31130.5 21820.5ZM31171.2 21824.1 31191.8 21824.9C31194.6 21825 31196.8 21827.4 31196.7 21830.2 31196.6 21833.1 31194.2 21835.3 31191.4 21835.2L31170.8 21834.4C31167.9 21834.3 31165.7 21831.9 31165.8 21829.1 31165.9 21826.2 31168.3 21824 31171.2 21824.1ZM31212.4 21825.6 31233 21826.4C31235.8 21826.5 31238.1 21828.9 31237.9 21831.8 31237.8 21834.6 31235.4 21836.8 31232.6 21836.7L31212 21835.9C31209.1 21835.8 31206.9 21833.5 31207 21830.6 31207.1 21827.8 31209.5 21825.5 31212.4 21825.6ZM31253.6 21827.2 31264.2 21827.6 31261 21828.6 31269 21822.6C31271.3 21820.9 31274.5 21821.4 31276.2 21823.7 31277.9 21826 31277.4 21829.2 31275.1 21830.9L31267.1 21836.9C31266.2 21837.6 31265 21837.9 31263.8 21837.9L31253.2 21837.5C31250.4 21837.4 31248.1 21835 31248.3 21832.1 31248.4 21829.3 31250.7 21827.1 31253.6 21827.2ZM31285.6 21810.3 31302.1 21798.1C31304.4 21796.4 31307.7 21796.9 31309.3 21799.1 31311 21801.4 31310.6 21804.7 31308.3 21806.4L31291.7 21818.6C31289.4 21820.3 31286.2 21819.8 31284.5 21817.6 31282.8 21815.3 31283.3 21812 31285.6 21810.3ZM31318.7 21785.8 31335.3 21773.5C31337.6 21771.8 31340.8 21772.3 31342.5 21774.6 31344.2 21776.9 31343.7 21780.1 31341.4 21781.8L31324.8 21794.1C31322.6 21795.8 31319.3 21795.3 31317.6 21793 31315.9 21790.7 31316.4 21787.5 31318.7 21785.8ZM31351.9 21761.2 31368.4 21749C31370.7 21747.3 31373.9 21747.8 31375.6 21750 31377.3 21752.3 31376.9 21755.6 31374.6 21757.2L31358 21769.5C31355.7 21771.2 31352.5 21770.7 31350.8 21768.5 31349.1 21766.2 31349.6 21762.9 31351.9 21761.2ZM31391 21760.9 31407.2 21773.6C31409.5 21775.3 31409.9 21778.6 31408.1 21780.8 31406.4 21783 31403.2 21783.5 31400.9 21781.7L31384.6 21769C31382.4 21767.3 31382 21764.1 31383.7 21761.8 31385.5 21759.6 31388.7 21759.2 31391 21760.9ZM31423.5 21786.2 31439.8 21798.9C31442 21800.6 31442.4 21803.9 31440.7 21806.1 31439 21808.4 31435.7 21808.8 31433.5 21807L31417.2 21794.4C31414.9 21792.6 31414.5 21789.4 31416.3 21787.1 31418 21784.9 31421.3 21784.5 31423.5 21786.2ZM31456.1 21811.6 31472.4 21824.2C31474.6 21826 31475 21829.2 31473.3 21831.4 31471.5 21833.7 31468.3 21834.1 31466 21832.4L31449.7 21819.7C31447.5 21817.9 31447.1 21814.7 31448.8 21812.5 31450.6 21810.2 31453.8 21809.8 31456.1 21811.6ZM31487.2 21832 31507.8 21833.1C31510.6 21833.3 31512.8 21835.7 31512.7 21838.5 31512.5 21841.4 31510.1 21843.6 31507.2 21843.4L31486.6 21842.2C31483.8 21842.1 31481.6 21839.7 31481.8 21836.8 31481.9 21834 31484.4 21831.8 31487.2 21832ZM31528.4 21834.3 31549 21835.4C31551.8 21835.6 31554 21838 31553.8 21840.9 31553.7 21843.7 31551.2 21845.9 31548.4 21845.7L31527.8 21844.6C31525 21844.4 31522.8 21842 31522.9 21839.1 31523.1 21836.3 31525.5 21834.1 31528.4 21834.3ZM31569.6 21836.6 31587.3 21837.6 31586.4 21837.6 31589.2 21837.2C31592 21836.9 31594.6 21838.9 31595 21841.7 31595.3 21844.5 31593.3 21847.1 31590.5 21847.5L31587.7 21847.8C31587.4 21847.9 31587.1 21847.9 31586.7 21847.9L31569 21846.9C31566.1 21846.7 31564 21844.3 31564.1 21841.4 31564.3 21838.6 31566.7 21836.4 31569.6 21836.6ZM31609.6 21834.6 31630.1 21831.9C31632.9 21831.6 31635.5 21833.6 31635.9 21836.4 31636.2 21839.2 31634.2 21841.8 31631.4 21842.2L31611 21844.8C31608.1 21845.2 31605.6 21843.2 31605.2 21840.4 31604.8 21837.5 31606.8 21835 31609.6 21834.6ZM31650.6 21829.3 31671 21826.6C31673.8 21826.3 31676.4 21828.3 31676.8 21831.1 31677.2 21833.9 31675.2 21836.5 31672.3 21836.9L31651.9 21839.5C31649.1 21839.9 31646.5 21837.9 31646.1 21835.1 31645.7 21832.2 31647.7 21829.7 31650.6 21829.3ZM31691.5 21824 31694.4 21823.6 31691.1 21825.4 31702.5 21811.9C31704.3 21809.7 31707.6 21809.4 31709.8 21811.3 31711.9 21813.1 31712.2 21816.3 31710.4 21818.5L31699 21832C31698.2 21833 31697 21833.7 31695.7 21833.8L31692.8 21834.2C31690 21834.6 31687.4 21832.6 31687 21829.8 31686.6 21826.9 31688.6 21824.3 31691.5 21824ZM31715.8 21796.1 31729.1 21780.3C31730.9 21778.2 31734.2 21777.9 31736.4 21779.7 31738.5 21781.6 31738.8 21784.8 31737 21787L31723.7 21802.8C31721.8 21804.9 31718.6 21805.2 31716.4 21803.4 31714.2 21801.5 31714 21798.3 31715.8 21796.1ZM31742.4 21764.6 31755.7 21748.8C31757.5 21746.6 31760.8 21746.4 31763 21748.2 31765.1 21750 31765.4 21753.3 31763.6 21755.5L31750.3 21771.2C31748.4 21773.4 31745.2 21773.7 31743 21771.8 31740.8 21770 31740.6 21766.8 31742.4 21764.6ZM31769 21733.1 31782.3 21717.3C31784.1 21715.1 31787.4 21714.8 31789.6 21716.7 31791.7 21718.5 31792 21721.8 31790.2 21723.9L31776.9 21739.7C31775.1 21741.9 31771.8 21742.2 31769.6 21740.3 31767.4 21738.5 31767.2 21735.2 31769 21733.1ZM31795.6 21701.5 31799.1 21697.4C31800.1 21696.2 31801.6 21695.5 31803.2 21695.6 31804.7 21695.6 31806.2 21696.3 31807.1 21697.6L31816.4 21709.6C31818.1 21711.9 31817.7 21715.1 31815.4 21716.9 31813.2 21718.6 31809.9 21718.2 31808.2 21715.9L31798.9 21703.8 31807 21704 31803.5 21708.2C31801.7 21710.4 31798.4 21710.6 31796.2 21708.8 31794 21707 31793.8 21703.7 31795.6 21701.5ZM31828.9 21726 31841.5 21742.4C31843.2 21744.7 31842.8 21747.9 31840.5 21749.6 31838.2 21751.4 31835 21750.9 31833.3 21748.7L31820.7 21732.3C31819 21730 31819.4 21726.8 31821.7 21725.1 31824 21723.3 31827.2 21723.8 31828.9 21726ZM31854 21758.8 31866.5 21775.1C31868.3 21777.4 31867.9 21780.6 31865.6 21782.4 31863.3 21784.1 31860.1 21783.7 31858.4 21781.4L31845.8 21765C31844.1 21762.8 31844.5 21759.5 31846.8 21757.8 31849 21756.1 31852.3 21756.5 31854 21758.8ZM31879.1 21791.5 31891.6 21807.9C31893.4 21810.2 31892.9 21813.4 31890.7 21815.1 31888.4 21816.8 31885.2 21816.4 31883.4 21814.2L31870.9 21797.8C31869.2 21795.5 31869.6 21792.3 31871.9 21790.6 31874.1 21788.8 31877.4 21789.3 31879.1 21791.5ZM31904.2 21824.3 31915.1 21838.6 31911.1 21836.6 31913.7 21836.6C31916.5 21836.6 31918.8 21838.9 31918.8 21841.8 31918.8 21844.6 31916.4 21846.9 31913.6 21846.9L31911 21846.9C31909.4 21846.9 31907.9 21846.1 31907 21844.9L31896 21830.5C31894.3 21828.3 31894.7 21825 31896.9 21823.3 31899.2 21821.6 31902.4 21822 31904.2 21824.3ZM31934.3 21836.8 31954.9 21837C31957.8 21837 31960.1 21839.3 31960 21842.2 31960 21845 31957.7 21847.3 31954.8 21847.3L31934.2 21847.1C31931.4 21847.1 31929.1 21844.7 31929.1 21841.9 31929.1 21839 31931.5 21836.8 31934.3 21836.8ZM31975.6 21837.2 31996.2 21837.3C31999 21837.4 32001.3 21839.7 32001.3 21842.6 32001.3 21845.4 31998.9 21847.7 31996.1 21847.7L31975.5 21847.5C31972.6 21847.4 31970.3 21845.1 31970.4 21842.3 31970.4 21839.4 31972.7 21837.1 31975.6 21837.2ZM32016.8 21837.5 32019.1 21837.6 32037.5 21837.9C32040.3 21838 32042.6 21840.3 32042.5 21843.2 32042.5 21846 32040.1 21848.3 32037.3 21848.2L32019 21847.9 32016.7 21847.9C32013.9 21847.8 32011.6 21845.5 32011.6 21842.6 32011.6 21839.8 32014 21837.5 32016.8 21837.5ZM32058.1 21838.3 32078.7 21838.7C32081.6 21838.7 32083.8 21841.1 32083.8 21843.9 32083.7 21846.8 32081.4 21849 32078.5 21849L32057.9 21848.6C32055.1 21848.5 32052.8 21846.2 32052.8 21843.3 32052.9 21840.5 32055.2 21838.2 32058.1 21838.3ZM32099.3 21839 32120 21839.4C32122.8 21839.5 32125.1 21841.8 32125 21844.7 32125 21847.5 32122.6 21849.8 32119.8 21849.7L32099.1 21849.4C32096.3 21849.3 32094 21847 32094.1 21844.1 32094.1 21841.3 32096.5 21839 32099.3 21839ZM32138.9 21836.6 32159 21831.7C32161.7 21831.1 32164.5 21832.8 32165.2 21835.5 32165.8 21838.3 32164.1 21841.1 32161.4 21841.8L32141.3 21846.6C32138.6 21847.3 32135.8 21845.5 32135.1 21842.8 32134.4 21840 32136.1 21837.2 32138.9 21836.6ZM32179 21826.9 32199.1 21822.1C32201.8 21821.4 32204.6 21823.1 32205.3 21825.9 32206 21828.7 32204.2 21831.4 32201.5 21832.1L32181.4 21836.9C32178.7 21837.6 32175.9 21835.9 32175.2 21833.1 32174.5 21830.4 32176.2 21827.6 32179 21826.9ZM32219.1 21817.2 32233.9 21813.7C32234.6 21813.5 32235.3 21813.5 32236.1 21813.7L32241.4 21814.8C32244.2 21815.3 32246 21818 32245.5 21820.8 32244.9 21823.6 32242.2 21825.4 32239.4 21824.9L32234 21823.8 32236.3 21823.7 32221.5 21827.3C32218.8 21827.9 32216 21826.2 32215.3 21823.5 32214.6 21820.7 32216.3 21817.9 32219.1 21817.2ZM32261.7 21818.9 32281.9 21823C32284.7 21823.6 32286.5 21826.3 32285.9 21829.1 32285.3 21831.9 32282.6 21833.7 32279.8 21833.1L32259.6 21829C32256.8 21828.4 32255 21825.7 32255.6 21822.9 32256.1 21820.1 32258.9 21818.3 32261.7 21818.9ZM32302.1 21827.1 32322.3 21831.2C32325.1 21831.8 32326.9 21834.5 32326.3 21837.3 32325.7 21840.1 32323 21841.9 32320.2 21841.3L32300 21837.2C32297.2 21836.6 32295.4 21833.9 32296 21831.1 32296.6 21828.3 32299.3 21826.5 32302.1 21827.1ZM32342.5 21835.3 32344.1 21835.7 32362.7 21839.3C32365.5 21839.9 32367.3 21842.6 32366.8 21845.4 32366.2 21848.2 32363.5 21850 32360.7 21849.4L32342 21845.8 32340.4 21845.4C32337.6 21844.9 32335.8 21842.2 32336.4 21839.4 32337 21836.6 32339.7 21834.8 32342.5 21835.3ZM32382.9 21843.3 32403.2 21847.3C32406 21847.9 32407.8 21850.6 32407.2 21853.4 32406.7 21856.2 32404 21858 32401.2 21857.4L32380.9 21853.4C32378.1 21852.9 32376.3 21850.2 32376.9 21847.4 32377.4 21844.6 32380.1 21842.8 32382.9 21843.3ZM32423.4 21851.3 32443.6 21855.3C32446.4 21855.8 32448.3 21858.5 32447.7 21861.3 32447.2 21864.1 32444.4 21865.9 32441.6 21865.4L32421.4 21861.4C32418.6 21860.9 32416.8 21858.2 32417.3 21855.4 32417.9 21852.6 32420.6 21850.7 32423.4 21851.3ZM32462.1 21855 32482.5 21851.7C32485.3 21851.3 32488 21853.2 32488.4 21856 32488.9 21858.8 32486.9 21861.5 32484.1 21861.9L32463.8 21865.2C32461 21865.6 32458.3 21863.7 32457.9 21860.9 32457.4 21858.1 32459.3 21855.5 32462.1 21855ZM32502.9 21848.5 32523.2 21845.2C32526.1 21844.8 32528.7 21846.7 32529.1 21849.5 32529.6 21852.3 32527.7 21855 32524.9 21855.4L32504.5 21858.7C32501.7 21859.1 32499 21857.2 32498.6 21854.4 32498.1 21851.6 32500.1 21848.9 32502.9 21848.5ZM32543.6 21842 32558.3 21839.6 32555.8 21840.7 32560.3 21837.1C32562.5 21835.2 32565.7 21835.6 32567.5 21837.8 32569.3 21840 32569 21843.2 32566.8 21845L32562.3 21848.7C32561.6 21849.3 32560.8 21849.7 32559.9 21849.8L32545.2 21852.2C32542.4 21852.6 32539.8 21850.7 32539.3 21847.9 32538.9 21845.1 32540.8 21842.4 32543.6 21842ZM32576.2 21823.9 32592.1 21810.8C32594.3 21809 32597.5 21809.3 32599.3 21811.5 32601.2 21813.7 32600.8 21817 32598.6 21818.8L32582.7 21831.9C32580.5 21833.7 32577.3 21833.4 32575.5 21831.2 32573.7 21829 32574 21825.8 32576.2 21823.9ZM32608 21797.7 32623.9 21784.6C32626.1 21782.8 32629.4 21783.1 32631.2 21785.3 32633 21787.5 32632.7 21790.7 32630.5 21792.5L32614.6 21805.7C32612.4 21807.5 32609.1 21807.2 32607.3 21805 32605.5 21802.8 32605.8 21799.5 32608 21797.7ZM32639.8 21771.5 32655.8 21758.4C32658 21756.5 32661.2 21756.9 32663 21759.1 32664.8 21761.3 32664.5 21764.5 32662.3 21766.3L32646.4 21779.4C32644.2 21781.2 32641 21780.9 32639.1 21778.7 32637.3 21776.5 32637.6 21773.3 32639.8 21771.5ZM32678.1 21758.7 32693.5 21772.5C32695.6 21774.4 32695.8 21777.6 32693.9 21779.8 32691.9 21781.9 32688.7 21782.1 32686.6 21780.2L32671.2 21766.4C32669.1 21764.5 32668.9 21761.2 32670.8 21759.1 32672.7 21757 32676 21756.8 32678.1 21758.7ZM32708.8 21786.3 32724.2 21800C32726.3 21801.9 32726.4 21805.2 32724.5 21807.3 32722.6 21809.4 32719.4 21809.6 32717.3 21807.7L32701.9 21793.9C32699.8 21792 32699.6 21788.8 32701.5 21786.7 32703.4 21784.5 32706.7 21784.4 32708.8 21786.3ZM32739.5 21813.8 32754.8 21827.6C32757 21829.5 32757.1 21832.8 32755.2 21834.9 32753.3 21837 32750.1 21837.2 32747.9 21835.3L32732.6 21821.5C32730.5 21819.6 32730.3 21816.3 32732.2 21814.2 32734.1 21812.1 32737.4 21811.9 32739.5 21813.8ZM32770.2 21841.4 32778.5 21848.9 32774.8 21847.6 32784.2 21847.1C32787.1 21847 32789.5 21849.2 32789.6 21852 32789.8 21854.9 32787.6 21857.3 32784.7 21857.4L32775.3 21857.9C32774 21857.9 32772.6 21857.5 32771.6 21856.6L32763.3 21849.1C32761.2 21847.2 32761 21843.9 32762.9 21841.8 32764.8 21839.7 32768.1 21839.5 32770.2 21841.4ZM32804.8 21846.2 32825.4 21845.2C32828.3 21845.1 32830.7 21847.3 32830.8 21850.1 32831 21853 32828.8 21855.4 32825.9 21855.5L32805.3 21856.5C32802.5 21856.6 32800.1 21854.4 32799.9 21851.6 32799.8 21848.7 32802 21846.3 32804.8 21846.2ZM32846.1 21844.3 32866.7 21843.3C32869.5 21843.2 32871.9 21845.4 32872 21848.2 32872.2 21851.1 32870 21853.5 32867.1 21853.6L32846.5 21854.6C32843.7 21854.7 32841.3 21852.5 32841.1 21849.7 32841 21846.8 32843.2 21844.4 32846.1 21844.3ZM32887.6 21842.6 32908.2 21843C32911.1 21843.1 32913.3 21845.4 32913.3 21848.3 32913.2 21851.1 32910.9 21853.4 32908 21853.3L32887.4 21853C32884.6 21852.9 32882.3 21850.6 32882.3 21847.7 32882.4 21844.9 32884.8 21842.6 32887.6 21842.6ZM32928.8 21843.4 32949.5 21843.8C32952.3 21843.8 32954.6 21846.2 32954.5 21849 32954.5 21851.9 32952.1 21854.2 32949.3 21854.1L32928.6 21853.7C32925.8 21853.7 32923.5 21851.3 32923.6 21848.5 32923.6 21845.6 32926 21843.4 32928.8 21843.4ZM32970.1 21844.2 32990.7 21844.6C32993.6 21844.6 32995.8 21847 32995.8 21849.8 32995.7 21852.7 32993.4 21854.9 32990.5 21854.9L32969.9 21854.5C32967 21854.4 32964.8 21852.1 32964.8 21849.2 32964.9 21846.4 32967.2 21844.1 32970.1 21844.2ZM33007.6 21837.1 33026.6 21829C33029.2 21827.9 33032.2 21829.1 33033.3 21831.7 33034.5 21834.3 33033.2 21837.4 33030.6 21838.5L33011.6 21846.6C33009 21847.7 33006 21846.5 33004.9 21843.8 33003.8 21841.2 33005 21838.2 33007.6 21837.1ZM33045.6 21820.9 33064.5 21812.8C33067.1 21811.7 33070.2 21812.9 33071.3 21815.6 33072.4 21818.2 33071.2 21821.2 33068.6 21822.3L33049.6 21830.4C33047 21831.5 33043.9 21830.3 33042.8 21827.7 33041.7 21825.1 33042.9 21822 33045.6 21820.9ZM33083.5 21804.7 33097.1 21799C33098.4 21798.4 33100 21798.4 33101.3 21799.1L33106.6 21801.6C33109.2 21802.9 33110.3 21805.9 33109 21808.5 33107.8 21811.1 33104.7 21812.1 33102.2 21810.9L33096.8 21808.4 33101.1 21808.5 33087.5 21814.2C33084.9 21815.4 33081.9 21814.1 33080.8 21811.5 33079.7 21808.9 33080.9 21805.9 33083.5 21804.7ZM33125.2 21810.6 33143.8 21819.5C33146.4 21820.8 33147.4 21823.8 33146.2 21826.4 33145 21829 33141.9 21830 33139.3 21828.8L33120.7 21819.9C33118.2 21818.6 33117.1 21815.5 33118.3 21813 33119.6 21810.4 33122.6 21809.3 33125.2 21810.6ZM33162.4 21828.5 33181 21837.4C33183.5 21838.6 33184.6 21841.7 33183.4 21844.3 33182.1 21846.9 33179.1 21847.9 33176.5 21846.7L33157.9 21837.8C33155.3 21836.5 33154.3 21833.4 33155.5 21830.9 33156.7 21828.3 33159.8 21827.2 33162.4 21828.5ZM33199.5 21846.4 33209.3 21851.1 33206.7 21850.6 33216.4 21849.8C33219.2 21849.5 33221.7 21851.6 33222 21854.5 33222.2 21857.3 33220.1 21859.8 33217.2 21860L33207.5 21860.9C33206.6 21860.9 33205.7 21860.8 33204.9 21860.4L33195.1 21855.7C33192.5 21854.4 33191.4 21851.3 33192.7 21848.8 33193.9 21846.2 33197 21845.1 33199.5 21846.4ZM33236.9 21848.1 33257.5 21846.3C33260.3 21846.1 33262.8 21848.2 33263.1 21851.1 33263.3 21853.9 33261.2 21856.4 33258.4 21856.6L33237.8 21858.3C33235 21858.6 33232.5 21856.5 33232.2 21853.6 33232 21850.8 33234.1 21848.3 33236.9 21848.1ZM33278.1 21844.6 33298.6 21842.9C33301.4 21842.7 33303.9 21844.8 33304.2 21847.6 33304.4 21850.5 33302.3 21853 33299.5 21853.2L33278.9 21854.9C33276.1 21855.1 33273.6 21853 33273.3 21850.2 33273.1 21847.4 33275.2 21844.9 33278.1 21844.6ZM33319.1 21841.2 33339.6 21839.3C33342.5 21839 33345 21841.1 33345.3 21843.9 33345.5 21846.8 33343.4 21849.3 33340.6 21849.5L33320.1 21851.4C33317.2 21851.7 33314.7 21849.6 33314.4 21846.8 33314.2 21843.9 33316.3 21841.4 33319.1 21841.2ZM33360.2 21837.4 33380.7 21835.5C33383.6 21835.2 33386.1 21837.3 33386.3 21840.1 33386.6 21843 33384.5 21845.5 33381.7 21845.7L33361.1 21847.6C33358.3 21847.9 33355.8 21845.8 33355.5 21843 33355.3 21840.1 33357.3 21837.6 33360.2 21837.4ZM33401.3 21833.6 33421.8 21831.7C33424.6 21831.4 33427.1 21833.5 33427.4 21836.3 33427.7 21839.2 33425.6 21841.7 33422.7 21841.9L33402.2 21843.8C33399.4 21844.1 33396.9 21842 33396.6 21839.2 33396.3 21836.3 33398.4 21833.8 33401.3 21833.6ZM33425.2 21816.4 33432.5 21797.1C33433.5 21794.4 33436.5 21793.1 33439.2 21794.1 33441.8 21795.1 33443.2 21798 33442.2 21800.7L33434.9 21820C33433.9 21822.7 33430.9 21824 33428.3 21823 33425.6 21822 33424.2 21819 33425.2 21816.4ZM33439.8 21777.8 33447.1 21758.5C33448.1 21755.8 33451 21754.5 33453.7 21755.5 33456.4 21756.5 33457.7 21759.4 33456.7 21762.1L33449.4 21781.4C33448.4 21784.1 33445.5 21785.4 33442.8 21784.4 33440.1 21783.4 33438.8 21780.4 33439.8 21777.8ZM33454.3 21739.2 33461.6 21719.9C33462.6 21717.2 33465.6 21715.9 33468.2 21716.9 33470.9 21717.9 33472.3 21720.8 33471.3 21723.5L33464 21742.8C33463 21745.5 33460 21746.8 33457.3 21745.8 33454.7 21744.8 33453.3 21741.8 33454.3 21739.2ZM33468.9 21700.6 33476.1 21681.3C33477.1 21678.6 33480.1 21677.3 33482.8 21678.3 33485.4 21679.3 33486.8 21682.2 33485.8 21684.9L33478.5 21704.2C33477.5 21706.9 33474.5 21708.2 33471.9 21707.2 33469.2 21706.2 33467.9 21703.2 33468.9 21700.6ZM33483.4 21662 33490.7 21642.7C33491.7 21640 33494.7 21638.7 33497.3 21639.7 33500 21640.7 33501.3 21643.6 33500.3 21646.3L33493.1 21665.6C33492.1 21668.3 33489.1 21669.6 33486.4 21668.6 33483.8 21667.6 33482.4 21664.6 33483.4 21662ZM33498 21623.4 33505.2 21604.1C33506.2 21601.4 33509.2 21600.1 33511.9 21601.1 33514.5 21602.1 33515.9 21605 33514.9 21607.7L33507.6 21627C33506.6 21629.7 33503.6 21631 33501 21630 33498.3 21629 33496.9 21626 33498 21623.4ZM33512.5 21584.8 33519.8 21565.5C33520.8 21562.8 33523.7 21561.4 33526.4 21562.5 33529.1 21563.5 33530.4 21566.4 33529.4 21569.1L33522.1 21588.4C33521.1 21591.1 33518.2 21592.4 33515.5 21591.4 33512.8 21590.4 33511.5 21587.4 33512.5 21584.8ZM33536.7 21550.2 33544 21569.5C33545 21572.1 33543.7 21575.1 33541 21576.1 33538.3 21577.1 33535.4 21575.8 33534.4 21573.1L33527 21553.8C33526 21551.2 33527.4 21548.2 33530 21547.2 33532.7 21546.2 33535.7 21547.5 33536.7 21550.2ZM33551.3 21588.8 33558.6 21608C33559.6 21610.7 33558.3 21613.7 33555.6 21614.7 33553 21615.7 33550 21614.4 33549 21611.7L33541.7 21592.4C33540.7 21589.8 33542 21586.8 33544.7 21585.8 33547.3 21584.8 33550.3 21586.1 33551.3 21588.8ZM33565.9 21627.3 33573.3 21646.6C33574.3 21649.3 33572.9 21652.3 33570.3 21653.3 33567.6 21654.3 33564.6 21652.9 33563.6 21650.3L33556.3 21631C33555.3 21628.3 33556.6 21625.3 33559.3 21624.3 33562 21623.3 33564.9 21624.7 33565.9 21627.3ZM33580.6 21665.9 33587.9 21685.2C33588.9 21687.8 33587.6 21690.8 33584.9 21691.8 33582.2 21692.8 33579.3 21691.5 33578.3 21688.8L33570.9 21669.6C33569.9 21666.9 33571.3 21663.9 33573.9 21662.9 33576.6 21661.9 33579.6 21663.2 33580.6 21665.9ZM33595.2 21704.5 33602.5 21723.8C33603.5 21726.4 33602.2 21729.4 33599.5 21730.4 33596.9 21731.4 33593.9 21730.1 33592.9 21727.4L33585.6 21708.1C33584.6 21705.5 33585.9 21702.5 33588.6 21701.5 33591.2 21700.5 33594.2 21701.8 33595.2 21704.5ZM33609.8 21743 33617.2 21762.3C33618.2 21765 33616.8 21768 33614.2 21769 33611.5 21770 33608.5 21768.6 33607.5 21766L33600.2 21746.7C33599.2 21744 33600.5 21741.1 33603.2 21740 33605.9 21739 33608.8 21740.4 33609.8 21743ZM33624.5 21781.6 33631.8 21800.9C33632.8 21803.5 33631.5 21806.5 33628.8 21807.5 33626.1 21808.5 33623.2 21807.2 33622.1 21804.5L33614.8 21785.3C33613.8 21782.6 33615.2 21779.6 33617.8 21778.6 33620.5 21777.6 33623.5 21778.9 33624.5 21781.6ZM33639.1 21820.2 33643.9 21832.9 33638.9 21829.6 33645.9 21829.3C33648.8 21829.2 33651.2 21831.4 33651.3 21834.3 33651.4 21837.1 33649.2 21839.5 33646.3 21839.6L33639.3 21839.9C33637.1 21840 33635.1 21838.6 33634.3 21836.5L33629.5 21823.8C33628.4 21821.2 33629.8 21818.2 33632.4 21817.2 33635.1 21816.2 33638.1 21817.5 33639.1 21820.2ZM33666.5 21828.5 33687.2 21827.8C33690 21827.7 33692.4 21829.9 33692.5 21832.7 33692.6 21835.6 33690.4 21838 33687.5 21838.1L33666.9 21838.8C33664.1 21839 33661.7 21836.7 33661.6 21833.9 33661.5 21831 33663.7 21828.6 33666.5 21828.5ZM33707.8 21827 33728.4 21826.2C33731.2 21826.1 33733.6 21828.4 33733.7 21831.2 33733.8 21834.1 33731.6 21836.5 33728.8 21836.6L33708.1 21837.3C33705.3 21837.4 33702.9 21835.2 33702.8 21832.4 33702.7 21829.5 33704.9 21827.1 33707.8 21827ZM33750.2 21826.1 33770.4 21830.4C33773.2 21831 33774.9 21833.7 33774.3 21836.5 33773.8 21839.3 33771 21841.1 33768.2 21840.5L33748.1 21836.2C33745.3 21835.6 33743.5 21832.9 33744.1 21830.1 33744.7 21827.3 33747.4 21825.5 33750.2 21826.1ZM33790.6 21834.7 33810.7 21839C33813.5 21839.6 33815.3 21842.3 33814.7 21845.1 33814.1 21847.9 33811.4 21849.7 33808.6 21849.1L33788.4 21844.8C33785.6 21844.2 33783.8 21841.5 33784.4 21838.7 33785 21835.9 33787.8 21834.1 33790.6 21834.7ZM33830.9 21843.3 33851.1 21847.6C33853.9 21848.2 33855.6 21850.9 33855 21853.7 33854.4 21856.5 33851.7 21858.3 33848.9 21857.7L33828.8 21853.4C33826 21852.8 33824.2 21850 33824.8 21847.3 33825.4 21844.5 33828.1 21842.7 33830.9 21843.3ZM33866.1 21841.8 33884.2 21831.9C33886.8 21830.6 33889.9 21831.5 33891.2 21834 33892.6 21836.5 33891.7 21839.6 33889.2 21841L33871.1 21850.9C33868.6 21852.2 33865.5 21851.3 33864.1 21848.8 33862.7 21846.3 33863.7 21843.2 33866.1 21841.8ZM33902.4 21822 33920.4 21812.1C33922.9 21810.8 33926.1 21811.7 33927.4 21814.2 33928.8 21816.7 33927.9 21819.8 33925.4 21821.2L33907.3 21831.1C33904.8 21832.4 33901.7 21831.5 33900.3 21829 33898.9 21826.5 33899.9 21823.4 33902.4 21822ZM33938.6 21802.3 33956.7 21792.4C33959.1 21791 33962.3 21791.9 33963.6 21794.4 33965 21796.9 33964.1 21800.1 33961.6 21801.4L33943.5 21811.3C33941 21812.7 33937.9 21811.8 33936.5 21809.3 33935.1 21806.8 33936.1 21803.6 33938.6 21802.3ZM33979.9 21796.3 33998.9 21804.4C34001.5 21805.5 34002.7 21808.5 34001.6 21811.1 34000.5 21813.7 33997.5 21815 33994.9 21813.8L33975.9 21805.8C33973.3 21804.6 33972 21801.6 33973.2 21799 33974.3 21796.4 33977.3 21795.2 33979.9 21796.3ZM34017.9 21812.4 34036.9 21820.5C34039.5 21821.6 34040.7 21824.7 34039.6 21827.3 34038.5 21829.9 34035.4 21831.1 34032.8 21830L34013.8 21821.9C34011.2 21820.8 34010 21817.8 34011.1 21815.2 34012.2 21812.5 34015.3 21811.3 34017.9 21812.4ZM34055.8 21828.6 34073.1 21836 34070.1 21835.7 34071.9 21835.3C34074.7 21834.8 34077.4 21836.6 34078 21839.4 34078.5 21842.2 34076.7 21844.9 34073.9 21845.4L34072.1 21845.8C34071.1 21846 34070 21845.9 34069.1 21845.5L34051.8 21838.1C34049.2 21837 34047.9 21833.9 34049.1 21831.3 34050.2 21828.7 34053.2 21827.5 34055.8 21828.6ZM34092.1 21831.3 34112.4 21827.4C34115.2 21826.8 34117.9 21828.6 34118.4 21831.4 34119 21834.2 34117.2 21836.9 34114.4 21837.5L34094.1 21841.5C34091.3 21842 34088.6 21840.2 34088.1 21837.4 34087.5 21834.6 34089.3 21831.9 34092.1 21831.3ZM34132.6 21823.4 34152.9 21819.4C34155.7 21818.9 34158.4 21820.7 34158.9 21823.5 34159.5 21826.3 34157.6 21829 34154.8 21829.5L34134.6 21833.5C34131.8 21834.1 34129.1 21832.2 34128.6 21829.4 34128 21826.7 34129.8 21823.9 34132.6 21823.4ZM34173.1 21815.4 34177.1 21814.7C34177.6 21814.6 34178.1 21814.5 34178.6 21814.6L34195.1 21816.3C34197.9 21816.5 34200 21819.1 34199.7 21821.9 34199.4 21824.7 34196.9 21826.8 34194 21826.5L34177.6 21824.8 34179.1 21824.8 34175.1 21825.6C34172.3 21826.1 34169.6 21824.3 34169 21821.5 34168.5 21818.7 34170.3 21816 34173.1 21815.4ZM34215.6 21818.3 34236.1 21820.4C34238.9 21820.7 34241 21823.3 34240.7 21826.1 34240.4 21828.9 34237.9 21831 34235.1 21830.7L34214.5 21828.6C34211.7 21828.3 34209.7 21825.8 34209.9 21823 34210.2 21820.1 34212.8 21818.1 34215.6 21818.3ZM34256.6 21822.5 34277.1 21824.6C34280 21824.9 34282 21827.4 34281.8 21830.3 34281.5 21833.1 34278.9 21835.2 34276.1 21834.9L34255.6 21832.8C34252.8 21832.5 34250.7 21830 34251 21827.1 34251.3 21824.3 34253.8 21822.2 34256.6 21822.5ZM34296 21823.6 34316.3 21819.6C34319.1 21819.1 34321.8 21820.9 34322.3 21823.7 34322.9 21826.5 34321 21829.2 34318.2 21829.8L34298 21833.7C34295.2 21834.2 34292.5 21832.4 34291.9 21829.6 34291.4 21826.8 34293.2 21824.1 34296 21823.6ZM34336.5 21815.7 34356.8 21811.8C34359.6 21811.3 34362.3 21813.1 34362.8 21815.9 34363.4 21818.7 34361.5 21821.4 34358.7 21822L34338.5 21825.9C34335.7 21826.4 34333 21824.6 34332.4 21821.8 34331.9 21819 34333.7 21816.3 34336.5 21815.7ZM34377 21807.9 34394 21804.7C34396.8 21804.1 34399.5 21805.9 34400.1 21808.7 34400.6 21811.5 34398.8 21814.2 34396 21814.8L34379 21818.1C34376.2 21818.6 34373.5 21816.8 34372.9 21814 34372.4 21811.2 34374.2 21808.5 34377 21807.9Z" fill="#1F497D" fill-rule="nonzero" fill-opacity="1"/></g><g><path d="M31045.6 21387.1 31063.8 21377.5C31066.4 21376.2 31069.5 21377.2 31070.8 21379.7 31072.1 21382.2 31071.2 21385.3 31068.6 21386.6L31050.4 21396.3C31047.9 21397.6 31044.8 21396.6 31043.4 21394.1 31042.1 21391.6 31043.1 21388.5 31045.6 21387.1ZM31082.1 21367.9 31100.3 21358.3C31102.8 21356.9 31106 21357.9 31107.3 21360.4 31108.6 21362.9 31107.6 21366.1 31105.1 21367.4L31086.9 21377C31084.4 21378.3 31081.3 21377.4 31079.9 21374.9 31078.6 21372.3 31079.6 21369.2 31082.1 21367.9ZM31118.6 21348.6 31136.8 21339C31139.3 21337.7 31142.4 21338.6 31143.8 21341.2 31145.1 21343.7 31144.1 21346.8 31141.6 21348.1L31123.4 21357.8C31120.9 21359.1 31117.7 21358.1 31116.4 21355.6 31115.1 21353.1 31116 21350 31118.6 21348.6ZM31161 21332.6 31174.4 21348.3C31176.2 21350.5 31175.9 21353.7 31173.8 21355.6 31171.6 21357.4 31168.3 21357.1 31166.5 21355L31153.1 21339.3C31151.3 21337.1 31151.6 21333.8 31153.7 21332 31155.9 21330.2 31159.1 21330.4 31161 21332.6ZM31187.7 21364 31201.1 21379.7C31202.9 21381.9 31202.7 21385.1 31200.5 21387 31198.3 21388.8 31195.1 21388.6 31193.2 21386.4L31179.9 21370.7C31178 21368.5 31178.3 21365.3 31180.4 21363.4 31182.6 21361.6 31185.9 21361.8 31187.7 21364ZM31214.4 21395.4 31227.8 21411.1C31229.6 21413.3 31229.4 21416.6 31227.2 21418.4 31225 21420.3 31221.8 21420 31219.9 21417.8L31206.6 21402.1C31204.7 21399.9 31205 21396.7 31207.2 21394.8 31209.3 21393 31212.6 21393.3 31214.4 21395.4ZM31241.2 21426.9 31254.5 21442.6C31256.4 21444.7 31256.1 21448 31253.9 21449.8 31251.8 21451.7 31248.5 21451.4 31246.7 21449.2L31233.3 21433.5C31231.5 21431.4 31231.7 21428.1 31233.9 21426.3 31236.1 21424.4 31239.3 21424.7 31241.2 21426.9ZM31267.9 21458.3 31268 21458.4 31259.4 21459.5 31268.2 21441C31269.4 21438.4 31272.5 21437.3 31275.1 21438.5 31277.7 21439.8 31278.8 21442.8 31277.5 21445.4L31268.7 21463.9C31267.9 21465.5 31266.4 21466.6 31264.7 21466.8 31263 21467 31261.2 21466.4 31260.1 21465L31260 21465C31258.2 21462.8 31258.4 21459.5 31260.6 21457.7 31262.8 21455.8 31266 21456.1 31267.9 21458.3ZM31277.1 21422.4 31286 21403.8C31287.2 21401.2 31290.3 21400.1 31292.9 21401.3 31295.5 21402.5 31296.5 21405.6 31295.3 21408.2L31286.4 21426.8C31285.2 21429.4 31282.1 21430.5 31279.5 21429.2 31277 21428 31275.9 21424.9 31277.1 21422.4ZM31294.9 21385.1 31303.8 21366.5C31305 21364 31308.1 21362.9 31310.7 21364.1 31313.2 21365.3 31314.3 21368.4 31313.1 21371L31304.2 21389.6C31303 21392.2 31299.9 21393.2 31297.3 21392 31294.8 21390.8 31293.7 21387.7 31294.9 21385.1ZM31312.7 21347.9 31321.6 21329.3C31322.8 21326.7 31325.9 21325.7 31328.5 21326.9 31331 21328.1 31332.1 21331.2 31330.9 21333.8L31322 21352.4C31320.8 21354.9 31317.7 21356 31315.1 21354.8 31312.5 21353.6 31311.5 21350.5 31312.7 21347.9ZM31330.5 21310.7 31339.4 21292.1C31340.6 21289.5 31343.7 21288.4 31346.2 21289.7 31348.8 21290.9 31349.9 21294 31348.7 21296.5L31339.8 21315.2C31338.5 21317.7 31335.5 21318.8 31332.9 21317.6 31330.3 21316.4 31329.2 21313.3 31330.5 21310.7ZM31348.3 21273.5 31357.2 21254.9C31358.4 21252.3 31361.5 21251.2 31364 21252.4 31366.6 21253.7 31367.7 21256.8 31366.5 21259.3L31357.6 21277.9C31356.3 21280.5 31353.3 21281.6 31350.7 21280.4 31348.1 21279.1 31347 21276.1 31348.3 21273.5ZM31366 21236.3 31367.4 21233.5C31368.3 21231.6 31370.2 21230.5 31372.2 21230.5 31374.3 21230.6 31376.1 21231.9 31376.8 21233.8L31383.2 21250.2C31384.2 21252.8 31382.9 21255.8 31380.2 21256.8 31377.6 21257.9 31374.6 21256.6 31373.6 21253.9L31367.2 21237.6 31376.7 21237.9 31375.3 21240.7C31374.1 21243.3 31371 21244.4 31368.5 21243.1 31365.9 21241.9 31364.8 21238.8 31366 21236.3ZM31390.7 21269.4 31398.1 21288.6C31399.2 21291.3 31397.8 21294.3 31395.2 21295.3 31392.5 21296.3 31389.5 21295 31388.5 21292.4L31381 21273.1C31380 21270.5 31381.3 21267.5 31384 21266.5 31386.6 21265.4 31389.6 21266.7 31390.7 21269.4ZM31405.6 21307.8 31413.1 21327.1C31414.1 21329.7 31412.8 21332.7 31410.1 21333.7 31407.5 21334.8 31404.5 21333.5 31403.4 21330.8L31396 21311.6C31394.9 21308.9 31396.3 21305.9 31398.9 21304.9 31401.6 21303.9 31404.6 21305.2 31405.6 21307.8ZM31420.5 21346.3 31428 21365.5C31429 21368.2 31427.7 21371.2 31425.1 21372.2 31422.4 21373.2 31419.4 21371.9 31418.4 21369.3L31410.9 21350C31409.9 21347.4 31411.2 21344.4 31413.9 21343.4 31416.5 21342.3 31419.5 21343.6 31420.5 21346.3ZM31435.5 21384.7 31442.9 21404C31444 21406.6 31442.6 21409.6 31440 21410.6 31437.3 21411.7 31434.4 21410.4 31433.3 21407.7L31425.9 21388.5C31424.8 21385.8 31426.1 21382.8 31428.8 21381.8 31431.4 21380.8 31434.4 21382.1 31435.5 21384.7ZM31450.4 21423.2 31457.9 21442.4C31458.9 21445.1 31457.6 21448.1 31454.9 21449.1 31452.3 21450.1 31449.3 21448.8 31448.3 21446.2L31440.8 21426.9C31439.8 21424.3 31441.1 21421.3 31443.7 21420.3 31446.4 21419.2 31449.4 21420.5 31450.4 21423.2ZM31465.3 21461.6 31472.8 21480.9C31473.8 21483.5 31472.5 21486.5 31469.9 21487.5 31467.2 21488.6 31464.2 21487.3 31463.2 21484.6L31455.7 21465.4C31454.7 21462.7 31456 21459.7 31458.7 21458.7 31461.3 21457.7 31464.3 21459 31465.3 21461.6ZM31480.3 21500.1 31484.8 21511.8 31480.9 21508.6 31488.8 21510C31491.6 21510.4 31493.5 21513.1 31493 21515.9 31492.6 21518.7 31489.9 21520.6 31487.1 21520.1L31479.2 21518.8C31477.4 21518.5 31475.9 21517.3 31475.2 21515.6L31470.7 21503.8C31469.6 21501.2 31470.9 21498.2 31473.6 21497.2 31476.3 21496.1 31479.2 21497.4 31480.3 21500.1ZM31509.1 21513.4 31529.5 21516.8C31532.3 21517.3 31534.2 21519.9 31533.7 21522.7 31533.2 21525.5 31530.6 21527.4 31527.8 21527L31507.4 21523.5C31504.6 21523.1 31502.7 21520.4 31503.2 21517.6 31503.7 21514.8 31506.3 21512.9 31509.1 21513.4ZM31549.8 21520.2 31570.2 21523.6C31573 21524.1 31574.9 21526.8 31574.4 21529.6 31573.9 21532.4 31571.3 21534.3 31568.5 21533.8L31548.1 21530.4C31545.3 21529.9 31543.4 21527.3 31543.9 21524.4 31544.4 21521.6 31547 21519.7 31549.8 21520.2ZM31590.7 21527.2 31610.9 21531.7C31613.7 21532.3 31615.4 21535.1 31614.8 21537.9 31614.2 21540.7 31611.4 21542.4 31608.6 21541.8L31588.5 21537.3C31585.7 21536.7 31584 21533.9 31584.6 21531.2 31585.2 21528.4 31588 21526.6 31590.7 21527.2ZM31631 21536.2 31651.1 21540.7C31653.9 21541.3 31655.7 21544 31655.1 21546.8 31654.4 21549.6 31651.7 21551.4 31648.9 21550.7L31628.8 21546.3C31626 21545.6 31624.2 21542.9 31624.9 21540.1 31625.5 21537.3 31628.2 21535.6 31631 21536.2ZM31671.3 21545.1 31691.4 21549.6C31694.2 21550.2 31695.9 21553 31695.3 21555.8 31694.7 21558.6 31692 21560.3 31689.2 21559.7L31669 21555.2C31666.3 21554.6 31664.5 21551.8 31665.1 21549.1 31665.7 21546.3 31668.5 21544.5 31671.3 21545.1ZM31695.4 21539.1 31702.2 21519.7C31703.2 21517 31706.1 21515.6 31708.8 21516.5 31711.5 21517.4 31712.9 21520.4 31711.9 21523.1L31705.1 21542.5C31704.2 21545.2 31701.2 21546.6 31698.5 21545.7 31695.9 21544.8 31694.4 21541.8 31695.4 21539.1ZM31709 21500.2 31715.9 21480.7C31716.8 21478.1 31719.7 21476.6 31722.4 21477.6 31725.1 21478.5 31726.5 21481.5 31725.6 21484.2L31718.8 21503.6C31717.8 21506.3 31714.9 21507.7 31712.2 21506.8 31709.5 21505.8 31708.1 21502.9 31709 21500.2ZM31722.7 21461.3 31729.5 21441.8C31730.5 21439.1 31733.4 21437.7 31736.1 21438.7 31738.8 21439.6 31740.2 21442.5 31739.2 21445.2L31732.4 21464.7C31731.5 21467.4 31728.5 21468.8 31725.8 21467.8 31723.2 21466.9 31721.7 21464 31722.7 21461.3ZM31736.3 21422.4 31743.2 21402.9C31744.1 21400.2 31747 21398.8 31749.7 21399.7 31752.4 21400.7 31753.8 21403.6 31752.9 21406.3L31746.1 21425.8C31745.1 21428.5 31742.2 21429.9 31739.5 21428.9 31736.8 21428 31735.4 21425 31736.3 21422.4ZM31750 21383.4 31756.8 21364C31757.8 21361.3 31760.7 21359.9 31763.4 21360.8 31766.1 21361.7 31767.5 21364.7 31766.5 21367.4L31759.7 21386.8C31758.8 21389.5 31755.8 21390.9 31753.1 21390 31750.5 21389.1 31749 21386.1 31750 21383.4ZM31763.6 21344.5 31770.5 21325C31771.4 21322.3 31774.3 21320.9 31777 21321.9 31779.7 21322.8 31781.1 21325.8 31780.2 21328.4L31773.4 21347.9C31772.4 21350.6 31769.5 21352 31766.8 21351.1 31764.1 21350.1 31762.7 21347.2 31763.6 21344.5ZM31777.3 21305.6 31784.1 21286.1C31785.1 21283.4 31788 21282 31790.7 21282.9 31793.4 21283.9 31794.8 21286.8 31793.8 21289.5L31787 21309C31786.1 21311.7 31783.1 21313.1 31780.4 21312.1 31777.8 21311.2 31776.3 21308.3 31777.3 21305.6ZM31790.9 21266.6 31797.8 21247.2C31798.7 21244.5 31801.6 21243.1 31804.3 21244 31807 21245 31808.4 21247.9 31807.5 21250.6L31800.7 21270.1C31799.7 21272.7 31796.8 21274.2 31794.1 21273.2 31791.4 21272.3 31790 21269.3 31790.9 21266.6ZM31814.2 21264.4 31820.8 21283.9C31821.7 21286.6 31820.3 21289.5 31817.6 21290.4 31814.9 21291.4 31811.9 21289.9 31811 21287.2L31804.4 21267.7C31803.5 21265 31804.9 21262.1 31807.6 21261.1 31810.3 21260.2 31813.2 21261.7 31814.2 21264.4ZM31827.4 21303.4 31834.1 21323C31835 21325.7 31833.5 21328.6 31830.8 21329.5 31828.1 21330.4 31825.2 21329 31824.3 21326.3L31817.7 21306.7C31816.7 21304.1 31818.2 21301.1 31820.9 21300.2 31823.6 21299.3 31826.5 21300.7 31827.4 21303.4ZM31840.7 21342.5 31847.3 21362C31848.2 21364.7 31846.8 21367.6 31844.1 21368.6 31841.4 21369.5 31838.5 21368 31837.6 21365.3L31830.9 21345.8C31830 21343.1 31831.4 21340.2 31834.1 21339.3 31836.8 21338.3 31839.8 21339.8 31840.7 21342.5ZM31853.9 21381.5 31860.6 21401.1C31861.5 21403.8 31860.1 21406.7 31857.4 21407.6 31854.7 21408.5 31851.7 21407.1 31850.8 21404.4L31844.2 21384.9C31843.3 21382.2 31844.7 21379.2 31847.4 21378.3 31850.1 21377.4 31853 21378.9 31853.9 21381.5ZM31867.2 21420.6 31873.8 21440.1C31874.8 21442.8 31873.3 21445.8 31870.6 21446.7 31867.9 21447.6 31865 21446.2 31864.1 21443.5L31857.4 21423.9C31856.5 21421.2 31858 21418.3 31860.7 21417.4 31863.4 21416.5 31866.3 21417.9 31867.2 21420.6ZM31880.5 21459.7 31887.1 21479.2C31888 21481.9 31886.6 21484.8 31883.9 21485.7 31881.2 21486.7 31878.3 21485.2 31877.3 21482.5L31870.7 21463C31869.8 21460.3 31871.2 21457.4 31873.9 21456.4 31876.6 21455.5 31879.6 21457 31880.5 21459.7ZM31893.7 21498.7 31900.4 21518.3C31901.3 21521 31899.8 21523.9 31897.2 21524.8 31894.5 21525.7 31891.5 21524.3 31890.6 21521.6L31884 21502C31883.1 21499.3 31884.5 21496.4 31887.2 21495.5 31889.9 21494.6 31892.8 21496 31893.7 21498.7ZM31907 21537.8 31913.6 21557.3C31914.6 21560 31913.1 21562.9 31910.4 21563.9 31907.7 21564.8 31904.8 21563.3 31903.9 21560.6L31897.2 21541.1C31896.3 21538.4 31897.8 21535.5 31900.5 21534.6 31903.2 21533.6 31906.1 21535.1 31907 21537.8ZM31924.1 21559.6 31944.7 21558C31947.5 21557.8 31950 21560 31950.2 21562.8 31950.4 21565.6 31948.3 21568.1 31945.5 21568.3L31924.9 21569.9C31922.1 21570.1 31919.6 21567.9 31919.4 21565.1 31919.2 21562.2 31921.3 21559.8 31924.1 21559.6ZM31965.3 21556.5 31985.8 21555C31988.7 21554.8 31991.2 21556.9 31991.4 21559.8 31991.6 21562.6 31989.4 21565.1 31986.6 21565.3L31966 21566.8C31963.2 21567 31960.7 21564.9 31960.5 21562 31960.3 21559.2 31962.4 21556.7 31965.3 21556.5ZM32006.4 21553.5 32018.7 21552.6C32019.8 21552.5 32020.9 21552.8 32021.9 21553.4L32028.8 21558C32031.2 21559.5 32031.9 21562.7 32030.3 21565.1 32028.8 21567.5 32025.6 21568.2 32023.2 21566.6L32016.2 21562 32019.4 21562.8 32007.2 21563.8C32004.3 21564 32001.9 21561.8 32001.7 21559 32001.4 21556.2 32003.6 21553.7 32006.4 21553.5ZM32046.1 21569.3 32063.3 21580.6C32065.7 21582.2 32066.4 21585.4 32064.8 21587.8 32063.2 21590.2 32060 21590.8 32057.7 21589.3L32040.4 21577.9C32038 21576.4 32037.4 21573.2 32038.9 21570.8 32040.5 21568.4 32043.7 21567.7 32046.1 21569.3ZM32080.6 21592 32097.8 21603.3C32100.2 21604.9 32100.8 21608.1 32099.3 21610.4 32097.7 21612.8 32094.5 21613.5 32092.1 21611.9L32074.9 21600.6C32072.5 21599 32071.8 21595.8 32073.4 21593.4 32075 21591.1 32078.2 21590.4 32080.6 21592ZM32115 21614.6 32129.9 21624.4 32122.8 21625.8 32124.4 21623.5C32126 21621.1 32129.2 21620.5 32131.5 21622.1 32133.9 21623.7 32134.5 21626.9 32132.9 21629.3L32131.3 21631.6C32129.7 21633.9 32126.6 21634.6 32124.2 21633L32109.4 21623.2C32107 21621.7 32106.3 21618.5 32107.9 21616.1 32109.4 21613.7 32112.6 21613.1 32115 21614.6ZM32136 21606.4 32147.6 21589.3C32149.2 21587 32152.4 21586.4 32154.7 21588 32157.1 21589.6 32157.7 21592.8 32156.1 21595.1L32144.5 21612.2C32142.9 21614.6 32139.7 21615.2 32137.3 21613.6 32135 21612 32134.4 21608.8 32136 21606.4ZM32159.1 21572.3 32170.7 21555.2C32172.3 21552.9 32175.5 21552.3 32177.9 21553.9 32180.3 21555.5 32180.9 21558.7 32179.3 21561L32167.7 21578.1C32166.1 21580.4 32162.9 21581 32160.5 21579.4 32158.2 21577.8 32157.5 21574.6 32159.1 21572.3ZM32182.3 21538.2 32193.9 21521.1C32195.5 21518.7 32198.7 21518.1 32201.1 21519.7 32203.4 21521.3 32204 21524.5 32202.4 21526.9L32190.9 21544C32189.3 21546.3 32186 21546.9 32183.7 21545.3 32181.3 21543.7 32180.7 21540.5 32182.3 21538.2ZM32205.5 21504 32217.1 21487C32218.7 21484.6 32221.9 21484 32224.3 21485.6 32226.6 21487.2 32227.2 21490.4 32225.6 21492.8L32214 21509.8C32212.4 21512.2 32209.2 21512.8 32206.9 21511.2 32204.5 21509.6 32203.9 21506.4 32205.5 21504ZM32228.7 21469.9 32230.8 21466.8C32231.8 21465.4 32233.4 21464.5 32235.2 21464.6 32237 21464.6 32238.6 21465.5 32239.5 21467.1L32248.1 21481.5C32249.6 21484 32248.8 21487.1 32246.4 21488.6 32243.9 21490.1 32240.8 21489.3 32239.3 21486.8L32230.6 21472.4 32239.3 21472.6 32237.2 21475.7C32235.6 21478.1 32232.4 21478.7 32230 21477.1 32227.7 21475.5 32227.1 21472.3 32228.7 21469.9ZM32258.7 21499.2 32269.3 21516.9C32270.8 21519.4 32270 21522.5 32267.6 21524 32265.1 21525.4 32262 21524.7 32260.5 21522.2L32249.9 21504.5C32248.4 21502.1 32249.2 21498.9 32251.7 21497.4 32254.1 21496 32257.3 21496.8 32258.7 21499.2ZM32279.9 21534.6 32290.5 21552.3C32292 21554.7 32291.2 21557.9 32288.8 21559.4 32286.3 21560.8 32283.2 21560 32281.7 21557.6L32271.1 21539.9C32269.6 21537.5 32270.4 21534.3 32272.9 21532.8 32275.3 21531.4 32278.5 21532.2 32279.9 21534.6ZM32301.1 21570 32311.7 21587.7C32313.2 21590.1 32312.4 21593.3 32310 21594.8 32307.5 21596.2 32304.4 21595.4 32302.9 21593L32292.3 21575.3C32290.8 21572.8 32291.6 21569.7 32294.1 21568.2 32296.5 21566.8 32299.7 21567.5 32301.1 21570ZM32322.3 21605.4 32332.9 21623.1C32334.4 21625.5 32333.6 21628.7 32331.2 21630.1 32328.7 21631.6 32325.6 21630.8 32324.1 21628.4L32313.5 21610.7C32312 21608.2 32312.8 21605.1 32315.3 21603.6 32317.7 21602.1 32320.9 21602.9 32322.3 21605.4ZM32343.5 21640.8 32347.5 21647.3 32339.4 21646.4 32348.4 21637.1C32350.4 21635.1 32353.6 21635 32355.7 21637 32357.7 21639 32357.8 21642.3 32355.8 21644.3L32346.8 21653.6C32345.6 21654.7 32344.1 21655.3 32342.5 21655.1 32340.9 21654.9 32339.5 21654 32338.6 21652.7L32334.7 21646.1C32333.2 21643.6 32334 21640.5 32336.5 21639 32338.9 21637.5 32342.1 21638.3 32343.5 21640.8ZM32362.7 21622.3 32377.1 21607.5C32379.1 21605.5 32382.4 21605.4 32384.4 21607.4 32386.4 21609.4 32386.5 21612.7 32384.5 21614.7L32370.1 21629.5C32368.2 21631.5 32364.9 21631.6 32362.9 21629.6 32360.8 21627.6 32360.8 21624.4 32362.7 21622.3ZM32391.5 21592.7 32405.8 21577.9C32407.8 21575.9 32411.1 21575.8 32413.1 21577.8 32415.2 21579.8 32415.2 21583.1 32413.2 21585.1L32398.9 21599.9C32396.9 21601.9 32393.6 21602 32391.6 21600 32389.5 21598 32389.5 21594.8 32391.5 21592.7ZM32420.2 21563.1 32434.6 21548.3C32436.5 21546.3 32439.8 21546.2 32441.9 21548.2 32443.9 21550.2 32443.9 21553.4 32442 21555.5L32427.6 21570.3C32425.6 21572.3 32422.3 21572.4 32420.3 21570.4 32418.3 21568.4 32418.2 21565.2 32420.2 21563.1ZM32455.1 21534.8 32474.1 21542.9C32476.7 21544 32478 21547.1 32476.8 21549.7 32475.7 21552.3 32472.7 21553.5 32470.1 21552.4L32451.1 21544.3C32448.5 21543.2 32447.3 21540.2 32448.4 21537.6 32449.5 21534.9 32452.5 21533.7 32455.1 21534.8ZM32493.1 21551 32512.1 21559.1C32514.7 21560.2 32515.9 21563.2 32514.8 21565.9 32513.7 21568.5 32510.7 21569.7 32508 21568.6L32489.1 21560.5C32486.4 21559.4 32485.2 21556.3 32486.3 21553.7 32487.4 21551.1 32490.5 21549.9 32493.1 21551ZM32531 21567.2 32550 21575.3C32552.6 21576.4 32553.9 21579.4 32552.7 21582 32551.6 21584.6 32548.6 21585.9 32546 21584.7L32527 21576.7C32524.4 21575.5 32523.2 21572.5 32524.3 21569.9 32525.4 21567.3 32528.4 21566.1 32531 21567.2ZM32556.9 21574.9 32563.5 21555.4C32564.4 21552.7 32567.3 21551.2 32570 21552.1 32572.7 21553 32574.2 21556 32573.3 21558.7L32566.7 21578.2C32565.8 21580.9 32562.9 21582.4 32560.2 21581.4 32557.5 21580.5 32556 21577.6 32556.9 21574.9ZM32570.1 21535.8 32576.7 21516.3C32577.6 21513.6 32580.5 21512.1 32583.2 21513 32585.9 21513.9 32587.3 21516.9 32586.4 21519.6L32579.9 21539.1C32578.9 21541.8 32576 21543.3 32573.3 21542.3 32570.6 21541.4 32569.2 21538.5 32570.1 21535.8ZM32583.2 21496.7 32589.8 21477.2C32590.7 21474.5 32593.6 21473 32596.3 21473.9 32599 21474.8 32600.5 21477.8 32599.6 21480.5L32593 21500C32592.1 21502.7 32589.2 21504.2 32586.5 21503.3 32583.8 21502.3 32582.3 21499.4 32583.2 21496.7ZM32596.4 21457.6 32603 21438.1C32603.9 21435.4 32606.8 21433.9 32609.5 21434.8 32612.2 21435.7 32613.6 21438.7 32612.7 21441.4L32606.2 21460.9C32605.2 21463.6 32602.3 21465.1 32599.6 21464.2 32596.9 21463.2 32595.5 21460.3 32596.4 21457.6ZM32609.5 21418.5 32616.1 21399C32617 21396.3 32619.9 21394.8 32622.6 21395.7 32625.3 21396.6 32626.8 21399.6 32625.9 21402.3L32619.3 21421.8C32618.4 21424.5 32615.5 21426 32612.8 21425.1 32610.1 21424.2 32608.6 21421.2 32609.5 21418.5ZM32622.7 21379.4 32629.3 21359.9C32630.2 21357.2 32633.1 21355.7 32635.8 21356.6 32638.5 21357.6 32640 21360.5 32639 21363.2L32632.5 21382.7C32631.6 21385.4 32628.6 21386.9 32625.9 21386 32623.2 21385.1 32621.8 21382.1 32622.7 21379.4ZM32635.8 21340.3 32642.4 21320.8C32643.3 21318.1 32646.3 21316.6 32649 21317.5 32651.7 21318.5 32653.1 21321.4 32652.2 21324.1L32645.6 21343.6C32644.7 21346.3 32641.8 21347.8 32639.1 21346.9 32636.4 21346 32634.9 21343 32635.8 21340.3ZM32649 21301.2 32655.6 21281.7C32656.5 21279 32659.4 21277.5 32662.1 21278.4 32664.8 21279.4 32666.3 21282.3 32665.4 21285L32658.8 21304.5C32657.9 21307.2 32654.9 21308.7 32652.2 21307.8 32649.5 21306.9 32648.1 21303.9 32649 21301.2ZM32662.2 21262.1 32662.2 21262.1C32662.9 21259.9 32664.9 21258.5 32667.1 21258.5 32669.3 21258.6 32671.3 21260 32672 21262.1L32678.3 21281.6C32679.2 21284.4 32677.7 21287.3 32675 21288.1 32672.3 21289 32669.4 21287.5 32668.5 21284.8L32662.2 21265.3 32672 21265.3 32671.9 21265.4C32671 21268.1 32668.1 21269.6 32665.4 21268.7 32662.7 21267.8 32661.2 21264.8 32662.2 21262.1ZM32684.6 21301.3 32691 21320.9C32691.9 21323.6 32690.4 21326.5 32687.7 21327.4 32685 21328.3 32682 21326.8 32681.2 21324.1L32674.8 21304.4C32674 21301.7 32675.4 21298.8 32678.1 21297.9 32680.9 21297.1 32683.8 21298.6 32684.6 21301.3ZM32697.3 21340.5 32703.7 21360.1C32704.6 21362.9 32703.1 21365.8 32700.4 21366.6 32697.6 21367.5 32694.7 21366 32693.9 21363.3L32687.5 21343.7C32686.6 21341 32688.1 21338.1 32690.8 21337.2 32693.5 21336.3 32696.5 21337.8 32697.3 21340.5ZM32710 21379.8 32716.4 21399.4C32717.2 21402.1 32715.8 21405 32713 21405.9 32710.3 21406.8 32707.4 21405.3 32706.6 21402.6L32700.2 21382.9C32699.3 21380.2 32700.8 21377.3 32703.5 21376.4 32706.2 21375.6 32709.1 21377.1 32710 21379.8ZM32722.7 21419 32729.1 21438.6C32729.9 21441.4 32728.4 21444.3 32725.7 21445.1 32723 21446 32720.1 21444.5 32719.2 21441.8L32712.9 21422.2C32712 21419.5 32713.5 21416.6 32716.2 21415.7 32718.9 21414.8 32721.8 21416.3 32722.7 21419ZM32735.4 21458.3 32741.8 21477.9C32742.6 21480.6 32741.1 21483.5 32738.4 21484.4 32735.7 21485.3 32732.8 21483.8 32731.9 21481.1L32725.6 21461.4C32724.7 21458.7 32726.2 21455.8 32728.9 21454.9 32731.6 21454.1 32734.5 21455.6 32735.4 21458.3ZM32748.1 21497.5 32754.4 21517.1C32755.3 21519.8 32753.8 21522.8 32751.1 21523.6 32748.4 21524.5 32745.5 21523 32744.6 21520.3L32738.3 21500.7C32737.4 21498 32738.9 21495.1 32741.6 21494.2 32744.3 21493.3 32747.2 21494.8 32748.1 21497.5ZM32760.8 21536.8 32767.1 21556.4C32768 21559.1 32766.5 21562 32763.8 21562.9 32761.1 21563.8 32758.2 21562.3 32757.3 21559.6L32751 21539.9C32750.1 21537.2 32751.6 21534.3 32754.3 21533.4 32757 21532.6 32759.9 21534.1 32760.8 21536.8ZM32773.5 21576 32779.8 21595.6C32780.7 21598.3 32779.2 21601.3 32776.5 21602.1 32773.8 21603 32770.9 21601.5 32770 21598.8L32763.7 21579.2C32762.8 21576.5 32764.3 21573.6 32767 21572.7 32769.7 21571.8 32772.6 21573.3 32773.5 21576ZM32792.1 21585.9 32811.5 21578.7C32814.2 21577.7 32817.1 21579.1 32818.1 21581.8 32819.1 21584.4 32817.7 21587.4 32815.1 21588.4L32795.7 21595.6C32793.1 21596.5 32790.1 21595.2 32789.1 21592.5 32788.1 21589.8 32789.5 21586.9 32792.1 21585.9ZM32830.8 21571.6 32850.2 21564.4C32852.8 21563.4 32855.8 21564.8 32856.8 21567.4 32857.8 21570.1 32856.4 21573.1 32853.8 21574.1L32834.4 21581.2C32831.7 21582.2 32828.8 21580.9 32827.8 21578.2 32826.8 21575.5 32828.2 21572.5 32830.8 21571.6ZM32869.5 21557.2 32881.3 21552.9C32882.7 21552.3 32884.3 21552.5 32885.6 21553.2L32892.6 21557.3C32895.1 21558.7 32896 21561.8 32894.5 21564.3 32893.1 21566.8 32890 21567.6 32887.5 21566.2L32880.5 21562.2 32884.9 21562.5 32873.1 21566.9C32870.4 21567.9 32867.5 21566.5 32866.5 21563.9 32865.5 21561.2 32866.8 21558.2 32869.5 21557.2ZM32910.5 21567.5 32928.4 21577.8C32930.9 21579.2 32931.7 21582.4 32930.3 21584.8 32928.9 21587.3 32925.8 21588.2 32923.3 21586.7L32905.4 21576.5C32902.9 21575 32902.1 21571.9 32903.5 21569.4 32904.9 21567 32908.1 21566.1 32910.5 21567.5ZM32946.3 21588.1 32964.2 21598.3C32966.7 21599.7 32967.5 21602.9 32966.1 21605.4 32964.7 21607.8 32961.5 21608.7 32959.1 21607.3L32941.2 21597C32938.7 21595.6 32937.8 21592.4 32939.3 21590 32940.7 21587.5 32943.8 21586.6 32946.3 21588.1ZM32982.1 21608.6 32993.6 21615.2 32986.2 21617.9 32988.8 21611.1C32989.8 21608.4 32992.7 21607.1 32995.4 21608 32998.1 21609 32999.4 21612 32998.4 21614.7L32995.9 21621.5C32995.4 21622.9 32994.3 21624 32992.8 21624.6 32991.4 21625.1 32989.8 21624.9 32988.5 21624.2L32976.9 21617.5C32974.5 21616.1 32973.6 21613 32975 21610.5 32976.5 21608 32979.6 21607.2 32982.1 21608.6ZM32995.9 21591.7 33003.1 21572.4C33004.1 21569.7 33007 21568.4 33009.7 21569.4 33012.4 21570.3 33013.7 21573.3 33012.8 21576L33005.6 21595.3C33004.6 21598 33001.6 21599.4 32999 21598.4 32996.3 21597.4 32994.9 21594.4 32995.9 21591.7ZM33010.2 21553.1 33017.4 21533.7C33018.4 21531 33021.3 21529.7 33024 21530.7 33026.7 21531.7 33028.1 21534.6 33027.1 21537.3L33019.9 21556.6C33018.9 21559.3 33016 21560.7 33013.3 21559.7 33010.6 21558.7 33009.2 21555.7 33010.2 21553.1ZM33024.5 21514.4 33031.7 21495C33032.7 21492.4 33035.7 21491 33038.3 21492 33041 21493 33042.4 21495.9 33041.4 21498.6L33034.2 21517.9C33033.2 21520.6 33030.3 21522 33027.6 21521 33024.9 21520 33023.6 21517 33024.5 21514.4ZM33038.9 21475.7 33046 21456.3C33047 21453.7 33050 21452.3 33052.6 21453.3 33055.3 21454.3 33056.7 21457.2 33055.7 21459.9L33048.5 21479.3C33047.5 21481.9 33044.6 21483.3 33041.9 21482.3 33039.2 21481.3 33037.9 21478.4 33038.9 21475.7ZM33053.2 21437 33060.3 21417.6C33061.3 21415 33064.3 21413.6 33066.9 21414.6 33069.6 21415.6 33071 21418.6 33070 21421.2L33062.8 21440.6C33061.8 21443.2 33058.9 21444.6 33056.2 21443.6 33053.5 21442.6 33052.2 21439.7 33053.2 21437ZM33067.5 21398.3 33074.6 21379C33075.6 21376.3 33078.6 21374.9 33081.3 21375.9 33083.9 21376.9 33085.3 21379.9 33084.3 21382.5L33077.1 21401.9C33076.2 21404.6 33073.2 21405.9 33070.5 21404.9 33067.9 21403.9 33066.5 21401 33067.5 21398.3ZM33081.8 21359.6 33088.9 21340.3C33089.9 21337.6 33092.9 21336.2 33095.6 21337.2 33098.2 21338.2 33099.6 21341.2 33098.6 21343.8L33091.5 21363.2C33090.5 21365.9 33087.5 21367.2 33084.8 21366.2 33082.2 21365.3 33080.8 21362.3 33081.8 21359.6ZM33105.9 21330.7 33113.6 21349.8C33114.7 21352.4 33113.4 21355.4 33110.8 21356.5 33108.1 21357.6 33105.1 21356.3 33104.1 21353.7L33096.3 21334.6C33095.2 21331.9 33096.5 21328.9 33099.1 21327.8 33101.8 21326.8 33104.8 21328 33105.9 21330.7ZM33121.4 21368.9 33129.1 21388C33130.2 21390.7 33128.9 21393.7 33126.3 21394.7 33123.7 21395.8 33120.7 21394.5 33119.6 21391.9L33111.8 21372.8C33110.8 21370.1 33112 21367.1 33114.7 21366.1 33117.3 21365 33120.3 21366.3 33121.4 21368.9ZM33136.9 21407.1 33144.7 21426.2C33145.7 21428.9 33144.5 21431.9 33141.8 21433 33139.2 21434 33136.2 21432.8 33135.1 21430.1L33127.3 21411C33126.3 21408.4 33127.5 21405.4 33130.2 21404.3 33132.8 21403.2 33135.8 21404.5 33136.9 21407.1ZM33152.4 21445.3 33160.2 21464.5C33161.2 21467.1 33160 21470.1 33157.3 21471.2 33154.7 21472.2 33151.7 21471 33150.6 21468.3L33142.9 21449.2C33141.8 21446.6 33143.1 21443.6 33145.7 21442.5 33148.3 21441.4 33151.3 21442.7 33152.4 21445.3ZM33167.9 21483.6 33175.7 21502.7C33176.8 21505.3 33175.5 21508.3 33172.9 21509.4 33170.2 21510.5 33167.2 21509.2 33166.1 21506.6L33158.4 21487.4C33157.3 21484.8 33158.6 21481.8 33161.2 21480.7 33163.9 21479.7 33166.9 21480.9 33167.9 21483.6ZM33183.5 21521.8 33191.2 21540.9C33192.3 21543.5 33191 21546.5 33188.4 21547.6 33185.7 21548.7 33182.7 21547.4 33181.7 21544.8L33173.9 21525.7C33172.8 21523 33174.1 21520 33176.7 21518.9 33179.4 21517.9 33182.4 21519.1 33183.5 21521.8ZM33199 21560 33206.7 21579.1C33207.8 21581.8 33206.5 21584.8 33203.9 21585.8 33201.3 21586.9 33198.2 21585.6 33197.2 21583L33189.4 21563.9C33188.3 21561.2 33189.6 21558.2 33192.3 21557.2 33194.9 21556.1 33197.9 21557.4 33199 21560ZM33208.5 21585.2 33223.4 21570.9C33225.4 21568.9 33228.7 21568.9 33230.7 21571 33232.7 21573 33232.6 21576.3 33230.5 21578.3L33215.7 21592.6C33213.6 21594.6 33210.4 21594.5 33208.4 21592.5 33206.4 21590.4 33206.5 21587.1 33208.5 21585.2ZM33238.2 21556.5 33253.1 21542.2C33255.2 21540.3 33258.4 21540.3 33260.4 21542.4 33262.4 21544.4 33262.3 21547.7 33260.3 21549.7L33245.4 21564C33243.3 21566 33240.1 21565.9 33238.1 21563.8 33236.1 21561.8 33236.2 21558.5 33238.2 21556.5ZM33268 21527.9 33282.8 21513.6C33284.9 21511.7 33288.1 21511.7 33290.1 21513.8 33292.1 21515.8 33292 21519.1 33290 21521.1L33275.1 21535.4C33273.1 21537.3 33269.8 21537.3 33267.8 21535.2 33265.8 21533.2 33265.9 21529.9 33268 21527.9ZM33297.7 21499.3 33311.5 21486C33312.5 21485 33313.9 21484.5 33315.3 21484.6L33316.7 21484.6C33319.6 21484.8 33321.8 21487.2 33321.6 21490 33321.5 21492.9 33319.1 21495.1 33316.3 21494.9L33314.9 21494.9 33318.7 21493.4 33304.8 21506.8C33302.8 21508.7 33299.5 21508.7 33297.5 21506.6 33295.6 21504.6 33295.6 21501.3 33297.7 21499.3ZM33337.3 21485.6 33357.9 21486.5C33360.8 21486.7 33363 21489.1 33362.9 21491.9 33362.7 21494.8 33360.3 21497 33357.5 21496.8L33336.9 21495.9C33334 21495.7 33331.8 21493.3 33331.9 21490.5 33332.1 21487.6 33334.5 21485.4 33337.3 21485.6ZM33378.5 21487.5 33399.1 21488.4C33402 21488.6 33404.2 21491 33404.1 21493.8 33403.9 21496.7 33401.5 21498.9 33398.7 21498.7L33378.1 21497.8C33375.2 21497.7 33373 21495.2 33373.2 21492.4 33373.3 21489.5 33375.7 21487.3 33378.5 21487.5ZM33419.8 21489.4 33423.3 21489.6 33418 21493.8 33421.2 21477C33421.7 21474.2 33424.4 21472.4 33427.2 21472.9 33430 21473.4 33431.8 21476.1 33431.3 21478.9L33428.2 21495.7C33427.7 21498.2 33425.4 21500 33422.9 21499.9L33419.3 21499.7C33416.4 21499.6 33414.2 21497.1 33414.4 21494.3 33414.5 21491.5 33416.9 21489.3 33419.8 21489.4ZM33425 21456.7 33428.8 21436.5C33429.3 21433.7 33432 21431.8 33434.8 21432.4 33437.6 21432.9 33439.4 21435.6 33438.9 21438.4L33435.1 21458.6C33434.6 21461.4 33431.9 21463.3 33429.1 21462.8 33426.3 21462.2 33424.4 21459.5 33425 21456.7ZM33432.6 21416.2 33436.4 21395.9C33436.9 21393.1 33439.6 21391.3 33442.4 21391.8 33445.2 21392.3 33447 21395 33446.5 21397.8L33442.7 21418.1C33442.2 21420.9 33439.5 21422.7 33436.7 21422.2 33433.9 21421.7 33432.1 21419 33432.6 21416.2ZM33440.2 21375.7 33444 21355.4C33444.5 21352.6 33447.2 21350.7 33450 21351.3 33452.8 21351.8 33454.6 21354.5 33454.1 21357.3L33450.3 21377.6C33449.8 21380.4 33447.1 21382.2 33444.3 21381.7 33441.5 21381.1 33439.7 21378.5 33440.2 21375.7ZM33447.8 21335.1 33451.6 21314.8C33452.1 21312 33454.8 21310.2 33457.6 21310.7 33460.4 21311.2 33462.3 21313.9 33461.7 21316.7L33457.9 21337C33457.4 21339.8 33454.7 21341.7 33451.9 21341.1 33449.1 21340.6 33447.3 21337.9 33447.8 21335.1ZM33455.4 21294.6 33459.2 21274.3C33459.7 21271.5 33462.4 21269.7 33465.2 21270.2 33468 21270.7 33469.9 21273.4 33469.3 21276.2L33465.5 21296.5C33465 21299.3 33462.3 21301.1 33459.5 21300.6 33456.7 21300.1 33454.9 21297.4 33455.4 21294.6ZM33463 21254 33466.8 21233.8C33467.3 21231 33470 21229.1 33472.8 21229.6 33475.6 21230.2 33477.5 21232.9 33476.9 21235.7L33473.1 21255.9C33472.6 21258.7 33469.9 21260.6 33467.1 21260 33464.3 21259.5 33462.5 21256.8 33463 21254ZM33470.6 21213.5 33474.4 21193.2C33474.9 21190.4 33477.6 21188.6 33480.4 21189.1 33483.2 21189.6 33485.1 21192.3 33484.5 21195.1L33480.7 21215.4C33480.2 21218.2 33477.5 21220 33474.7 21219.5 33471.9 21219 33470.1 21216.3 33470.6 21213.5ZM33478.2 21172.9 33482 21152.7C33482.5 21149.9 33485.2 21148 33488 21148.6 33490.8 21149.1 33492.7 21151.8 33492.2 21154.6L33488.3 21174.8C33487.8 21177.6 33485.1 21179.5 33482.3 21179 33479.5 21178.4 33477.7 21175.7 33478.2 21172.9ZM33485.8 21132.4 33489.6 21112.1C33490.1 21109.3 33492.8 21107.5 33495.6 21108 33498.4 21108.5 33500.3 21111.2 33499.8 21114L33496 21134.3C33495.4 21137.1 33492.7 21138.9 33489.9 21138.4 33487.1 21137.9 33485.3 21135.2 33485.8 21132.4ZM33493.4 21091.9 33497.2 21071.6C33497.8 21068.8 33500.4 21066.9 33503.2 21067.5 33506 21068 33507.9 21070.7 33507.4 21073.5L33503.6 21093.8C33503 21096.6 33500.3 21098.4 33497.5 21097.9 33494.7 21097.3 33492.9 21094.7 33493.4 21091.9ZM33501 21051.3 33504.8 21031C33505.4 21028.2 33508.1 21026.4 33510.9 21026.9 33513.7 21027.5 33515.5 21030.1 33515 21032.9L33511.2 21053.2C33510.6 21056 33507.9 21057.9 33505.1 21057.3 33502.3 21056.8 33500.5 21054.1 33501 21051.3ZM33508.6 21010.8 33512.4 20990.5C33513 20987.7 33515.7 20985.9 33518.5 20986.4 33521.3 20986.9 33523.1 20989.6 33522.6 20992.4L33518.8 21012.7C33518.2 21015.5 33515.6 21017.3 33512.8 21016.8 33510 21016.3 33508.1 21013.6 33508.6 21010.8ZM33516.2 20970.2 33520 20950C33520.6 20947.2 33523.3 20945.3 33526.1 20945.8 33528.9 20946.4 33530.7 20949.1 33530.2 20951.9L33526.4 20972.1C33525.9 20974.9 33523.2 20976.8 33520.4 20976.2 33517.6 20975.7 33515.7 20973 33516.2 20970.2ZM33523.8 20929.7 33526 20918C33526.5 20915.6 33528.6 20913.8 33531.1 20913.8 33533.6 20913.8 33535.7 20915.6 33536.2 20918.1L33537.8 20926.7C33538.3 20929.5 33536.4 20932.2 33533.6 20932.7 33530.8 20933.2 33528.1 20931.4 33527.6 20928.6L33526 20919.9 33536.2 20920 33534 20931.6C33533.5 20934.4 33530.8 20936.2 33528 20935.7 33525.2 20935.2 33523.3 20932.5 33523.8 20929.7ZM33541.5 20947 33545.2 20967.3C33545.7 20970.1 33543.9 20972.8 33541.1 20973.3 33538.3 20973.8 33535.6 20971.9 33535.1 20969.1L33531.3 20948.9C33530.8 20946.1 33532.7 20943.4 33535.5 20942.9 33538.3 20942.3 33541 20944.2 33541.5 20947ZM33548.9 20987.6 33552.7 21007.8C33553.2 21010.7 33551.3 21013.3 33548.5 21013.9 33545.7 21014.4 33543 21012.5 33542.5 21009.7L33538.8 20989.4C33538.3 20986.6 33540.1 20983.9 33542.9 20983.4 33545.7 20982.9 33548.4 20984.8 33548.9 20987.6ZM33556.4 21028.1 33560.1 21048.4C33560.6 21051.2 33558.8 21053.9 33556 21054.4 33553.2 21054.9 33550.5 21053.1 33550 21050.3L33546.3 21030C33545.7 21027.2 33547.6 21024.5 33550.4 21024 33553.2 21023.5 33555.9 21025.3 33556.4 21028.1ZM33563.9 21068.7 33567.6 21089C33568.1 21091.8 33566.2 21094.5 33563.4 21095 33560.6 21095.5 33558 21093.7 33557.4 21090.9L33553.7 21070.6C33553.2 21067.8 33555.1 21065.1 33557.9 21064.6 33560.7 21064.1 33563.3 21065.9 33563.9 21068.7ZM33571.3 21109.3 33575 21129.6C33575.6 21132.4 33573.7 21135.1 33570.9 21135.6 33568.1 21136.1 33565.4 21134.2 33564.9 21131.4L33561.2 21111.1C33560.7 21108.3 33562.5 21105.7 33565.3 21105.1 33568.1 21104.6 33570.8 21106.5 33571.3 21109.3ZM33578.8 21149.8 33582.5 21170.1C33583 21172.9 33581.2 21175.6 33578.4 21176.1 33575.6 21176.7 33572.9 21174.8 33572.4 21172L33568.6 21151.7C33568.1 21148.9 33570 21146.2 33572.8 21145.7 33575.6 21145.2 33578.2 21147 33578.8 21149.8ZM33586.2 21190.4 33589.9 21210.7C33590.5 21213.5 33588.6 21216.2 33585.8 21216.7 33583 21217.2 33580.3 21215.4 33579.8 21212.6L33576.1 21192.3C33575.6 21189.5 33577.4 21186.8 33580.2 21186.3 33583 21185.8 33585.7 21187.6 33586.2 21190.4ZM33593.7 21231 33597.4 21251.3C33597.9 21254.1 33596.1 21256.8 33593.3 21257.3 33590.5 21257.8 33587.8 21255.9 33587.3 21253.1L33583.5 21232.9C33583 21230.1 33584.9 21227.4 33587.7 21226.8 33590.5 21226.3 33593.2 21228.2 33593.7 21231ZM33601.1 21271.6 33604.9 21291.8C33605.4 21294.6 33603.5 21297.3 33600.7 21297.8 33597.9 21298.4 33595.2 21296.5 33594.7 21293.7L33591 21273.4C33590.5 21270.6 33592.3 21267.9 33595.1 21267.4 33597.9 21266.9 33600.6 21268.8 33601.1 21271.6ZM33608.6 21312.1 33612.3 21332.4C33612.8 21335.2 33611 21337.9 33608.2 21338.4 33605.4 21338.9 33602.7 21337.1 33602.2 21334.3L33598.4 21314C33597.9 21311.2 33599.8 21308.5 33602.6 21308 33605.4 21307.5 33608.1 21309.3 33608.6 21312.1ZM33616 21352.7 33619.8 21373C33620.3 21375.8 33618.4 21378.5 33615.6 21379 33612.8 21379.5 33610.1 21377.7 33609.6 21374.8L33605.9 21354.6C33605.4 21351.8 33607.2 21349.1 33610 21348.6 33612.8 21348 33615.5 21349.9 33616 21352.7ZM33623.5 21393.3 33627.2 21413.6C33627.7 21416.4 33625.9 21419 33623.1 21419.6 33620.3 21420.1 33617.6 21418.2 33617.1 21415.4L33613.4 21395.1C33612.8 21392.3 33614.7 21389.6 33617.5 21389.1 33620.3 21388.6 33623 21390.5 33623.5 21393.3ZM33631 21433.8 33634.7 21454.1C33635.2 21456.9 33633.3 21459.6 33630.5 21460.1 33627.7 21460.6 33625.1 21458.8 33624.5 21456L33620.8 21435.7C33620.3 21432.9 33622.2 21430.2 33625 21429.7 33627.8 21429.2 33630.4 21431 33631 21433.8ZM33638.4 21474.4 33642.1 21494.7C33642.7 21497.5 33640.8 21500.2 33638 21500.7 33635.2 21501.2 33632.5 21499.4 33632 21496.6L33628.3 21476.3C33627.8 21473.5 33629.6 21470.8 33632.4 21470.3 33635.2 21469.8 33637.9 21471.6 33638.4 21474.4ZM33648.6 21501.7 33669.2 21502.1C33672 21502.2 33674.3 21504.5 33674.2 21507.4 33674.2 21510.2 33671.8 21512.5 33669 21512.4L33648.4 21512C33645.5 21512 33643.3 21509.6 33643.3 21506.8 33643.4 21503.9 33645.7 21501.7 33648.6 21501.7ZM33689.8 21502.5 33710.4 21502.9C33713.3 21502.9 33715.5 21505.3 33715.5 21508.1 33715.4 21511 33713.1 21513.2 33710.2 21513.2L33689.6 21512.8C33686.8 21512.7 33684.5 21510.4 33684.6 21507.5 33684.6 21504.7 33687 21502.4 33689.8 21502.5ZM33731 21503.3 33747.2 21503.6C33748 21503.6 33748.7 21503.7 33749.4 21504.1L33753.4 21506C33755.9 21507.3 33757 21510.4 33755.7 21512.9 33754.5 21515.5 33751.4 21516.6 33748.8 21515.3L33744.8 21513.3 33747 21513.9 33730.9 21513.6C33728 21513.5 33725.7 21511.2 33725.8 21508.3 33725.8 21505.5 33728.2 21503.2 33731 21503.3ZM33771.9 21515.1 33790.4 21524.2C33793 21525.5 33794 21528.6 33792.8 21531.1 33791.5 21533.7 33788.4 21534.7 33785.9 21533.5L33767.4 21524.4C33764.8 21523.1 33763.8 21520 33765 21517.5 33766.3 21514.9 33769.3 21513.9 33771.9 21515.1ZM33808.9 21533.3 33827.4 21542.4C33830 21543.6 33831.1 21546.7 33829.8 21549.3 33828.6 21551.8 33825.5 21552.9 33822.9 21551.6L33804.4 21542.6C33801.8 21541.3 33800.8 21538.2 33802 21535.7 33803.3 21533.1 33806.4 21532 33808.9 21533.3ZM33846 21551.5 33857.4 21557.1 33850.4 21559.6 33853.6 21552.4C33854.8 21549.8 33857.8 21548.6 33860.4 21549.8 33863 21550.9 33864.2 21554 33863 21556.6L33859.8 21563.8C33859.3 21565.1 33858.2 21566.1 33856.9 21566.6 33855.6 21567 33854.1 21567 33852.8 21566.3L33841.4 21560.7C33838.9 21559.5 33837.8 21556.4 33839.1 21553.8 33840.3 21551.3 33843.4 21550.2 33846 21551.5ZM33862 21533.5 33870.4 21514.7C33871.5 21512.1 33874.6 21510.9 33877.2 21512.1 33879.8 21513.2 33880.9 21516.3 33879.8 21518.9L33871.4 21537.7C33870.3 21540.3 33867.2 21541.5 33864.6 21540.3 33862 21539.2 33860.8 21536.1 33862 21533.5ZM33878.7 21495.8 33887.1 21477C33888.3 21474.4 33891.3 21473.2 33893.9 21474.4 33896.5 21475.5 33897.7 21478.6 33896.5 21481.2L33888.2 21500C33887 21502.6 33884 21503.8 33881.4 21502.7 33878.8 21501.5 33877.6 21498.4 33878.7 21495.8ZM33895.5 21458.2 33903.9 21439.3C33905 21436.7 33908.1 21435.5 33910.7 21436.7 33913.3 21437.8 33914.4 21440.9 33913.3 21443.5L33904.9 21462.3C33903.8 21464.9 33900.7 21466.1 33898.1 21465 33895.5 21463.8 33894.3 21460.8 33895.5 21458.2ZM33912.2 21420.5 33920.6 21401.6C33921.8 21399 33924.8 21397.8 33927.4 21399 33930 21400.1 33931.2 21403.2 33930 21405.8L33921.7 21424.6C33920.5 21427.2 33917.5 21428.4 33914.9 21427.3 33912.3 21426.1 33911.1 21423.1 33912.2 21420.5ZM33929 21382.8 33937.4 21363.9C33938.5 21361.3 33941.6 21360.1 33944.2 21361.3 33946.8 21362.5 33948 21365.5 33946.8 21368.1L33938.4 21386.9C33937.3 21389.6 33934.2 21390.7 33931.6 21389.6 33929 21388.4 33927.8 21385.4 33929 21382.8ZM33945.8 21345.1 33954.1 21326.2C33955.3 21323.6 33958.3 21322.4 33960.9 21323.6 33963.5 21324.8 33964.7 21327.8 33963.6 21330.4L33955.2 21349.3C33954 21351.9 33951 21353 33948.4 21351.9 33945.8 21350.7 33944.6 21347.7 33945.8 21345.1ZM33972 21325.8 33980.6 21344.5C33981.7 21347.1 33980.6 21350.2 33978 21351.4 33975.4 21352.5 33972.3 21351.4 33971.2 21348.8L33962.6 21330C33961.4 21327.4 33962.6 21324.4 33965.2 21323.2 33967.8 21322 33970.8 21323.2 33972 21325.8ZM33989.1 21363.3 33997.7 21382.1C33998.8 21384.7 33997.7 21387.7 33995.1 21388.9 33992.5 21390.1 33989.5 21388.9 33988.3 21386.3L33979.7 21367.6C33978.5 21365 33979.7 21361.9 33982.3 21360.7 33984.9 21359.6 33987.9 21360.7 33989.1 21363.3ZM34006.2 21400.8 34014.8 21419.6C34015.9 21422.2 34014.8 21425.2 34012.2 21426.4 34009.6 21427.6 34006.6 21426.5 34005.4 21423.9L33996.8 21405.1C33995.6 21402.5 33996.8 21399.5 33999.4 21398.3 34002 21397.1 34005 21398.2 34006.2 21400.8ZM34023.3 21438.4 34031.9 21457.1C34033 21459.7 34031.9 21462.8 34029.3 21464 34026.7 21465.1 34023.7 21464 34022.5 21461.4L34013.9 21442.6C34012.7 21440.1 34013.9 21437 34016.5 21435.8 34019.1 21434.6 34022.1 21435.8 34023.3 21438.4ZM34040.4 21475.9 34049 21494.7C34050.2 21497.3 34049 21500.3 34046.4 21501.5 34043.8 21502.7 34040.8 21501.5 34039.6 21498.9L34031 21480.2C34029.9 21477.6 34031 21474.5 34033.6 21473.3 34036.2 21472.2 34039.2 21473.3 34040.4 21475.9ZM34057.5 21513.4 34066.1 21532.2C34067.3 21534.8 34066.1 21537.9 34063.5 21539 34060.9 21540.2 34057.9 21539.1 34056.7 21536.5L34048.1 21517.7C34047 21515.1 34048.1 21512.1 34050.7 21510.9 34053.3 21509.7 34056.3 21510.8 34057.5 21513.4ZM34074.6 21551 34075.8 21553.6 34068.1 21551.6 34082.4 21541C34084.6 21539.3 34087.9 21539.8 34089.6 21542.1 34091.3 21544.4 34090.8 21547.6 34088.5 21549.3L34074.2 21559.9C34072.9 21560.8 34071.3 21561.1 34069.8 21560.7 34068.3 21560.3 34067.1 21559.3 34066.4 21557.8L34065.2 21555.3C34064.1 21552.7 34065.2 21549.6 34067.8 21548.4 34070.4 21547.2 34073.4 21548.4 34074.6 21551ZM34098.9 21528.8 34115.5 21516.5C34117.8 21514.8 34121.1 21515.3 34122.8 21517.6 34124.4 21519.9 34124 21523.1 34121.7 21524.8L34105.1 21537C34102.8 21538.7 34099.6 21538.3 34097.9 21536 34096.2 21533.7 34096.7 21530.4 34098.9 21528.8ZM34132.1 21504.2 34148.7 21492C34151 21490.3 34154.2 21490.8 34155.9 21493.1 34157.6 21495.4 34157.1 21498.6 34154.9 21500.3L34138.3 21512.5C34136 21514.2 34132.7 21513.8 34131 21511.5 34129.4 21509.2 34129.8 21505.9 34132.1 21504.2ZM34165.3 21479.7 34175.1 21472.6C34176.1 21471.8 34177.4 21471.4 34178.7 21471.6L34187.2 21472.6C34190 21472.9 34192 21475.5 34191.7 21478.3 34191.4 21481.2 34188.8 21483.2 34186 21482.8L34177.5 21481.8 34181.2 21480.9 34171.4 21488C34169.2 21489.7 34165.9 21489.2 34164.2 21487 34162.5 21484.7 34163 21481.4 34165.3 21479.7ZM34207.7 21475.1 34228.1 21477.5C34231 21477.9 34233 21480.4 34232.6 21483.3 34232.3 21486.1 34229.7 21488.1 34226.9 21487.8L34206.4 21485.3C34203.6 21485 34201.6 21482.4 34201.9 21479.6 34202.3 21476.7 34204.8 21474.7 34207.7 21475.1ZM34248.6 21480 34269.1 21482.5C34271.9 21482.8 34273.9 21485.4 34273.6 21488.2 34273.3 21491 34270.7 21493 34267.9 21492.7L34247.4 21490.2C34244.6 21489.9 34242.5 21487.3 34242.9 21484.5 34243.2 21481.7 34245.8 21479.7 34248.6 21480ZM34281.6 21485.9 34285.8 21465.7C34286.4 21462.9 34289.1 21461.1 34291.9 21461.6 34294.7 21462.2 34296.5 21464.9 34295.9 21467.7L34291.8 21487.9C34291.2 21490.7 34288.5 21492.5 34285.7 21492 34282.9 21491.4 34281.1 21488.7 34281.6 21485.9ZM34289.9 21445.5 34294.1 21425.3C34294.6 21422.5 34297.3 21420.7 34300.1 21421.2 34302.9 21421.8 34304.7 21424.5 34304.2 21427.3L34300 21447.5C34299.4 21450.3 34296.7 21452.1 34293.9 21451.5 34291.1 21451 34289.3 21448.2 34289.9 21445.5ZM34298.2 21405 34302.3 21384.8C34302.9 21382.1 34305.6 21380.3 34308.4 21380.8 34311.2 21381.4 34313 21384.1 34312.4 21386.9L34308.3 21407.1C34307.7 21409.9 34305 21411.7 34302.2 21411.1 34299.4 21410.6 34297.6 21407.8 34298.2 21405ZM34306.5 21364.6 34310.6 21344.4C34311.2 21341.6 34313.9 21339.8 34316.7 21340.4 34319.5 21341 34321.3 21343.7 34320.7 21346.5L34316.6 21366.7C34316 21369.5 34313.3 21371.3 34310.5 21370.7 34307.7 21370.1 34305.9 21367.4 34306.5 21364.6ZM34314.7 21324.2 34318.9 21304C34319.4 21301.2 34322.2 21299.4 34324.9 21300 34327.7 21300.6 34329.5 21303.3 34329 21306.1L34324.8 21326.3C34324.3 21329.1 34321.5 21330.9 34318.7 21330.3 34316 21329.7 34314.2 21327 34314.7 21324.2ZM34323 21283.8 34327.1 21263.6C34327.7 21260.8 34330.4 21259 34333.2 21259.6 34336 21260.2 34337.8 21262.9 34337.2 21265.7L34333.1 21285.9C34332.5 21288.7 34329.8 21290.5 34327 21289.9 34324.2 21289.3 34322.4 21286.6 34323 21283.8ZM34331.3 21243.4 34335.4 21223.2C34336 21220.4 34338.7 21218.6 34341.5 21219.2 34344.3 21219.7 34346.1 21222.5 34345.5 21225.3L34341.4 21245.5C34340.8 21248.3 34338.1 21250.1 34335.3 21249.5 34332.5 21248.9 34330.7 21246.2 34331.3 21243.4ZM34339.5 21203 34343.7 21182.8C34344.2 21180 34347 21178.2 34349.8 21178.8 34352.5 21179.3 34354.3 21182.1 34353.8 21184.8L34349.6 21205.1C34349.1 21207.8 34346.3 21209.6 34343.6 21209.1 34340.8 21208.5 34339 21205.8 34339.5 21203ZM34347.8 21162.6 34351.9 21142.4C34352.5 21139.6 34355.2 21137.8 34358 21138.3 34360.8 21138.9 34362.6 21141.6 34362 21144.4L34357.9 21164.6C34357.3 21167.4 34354.6 21169.2 34351.8 21168.7 34349 21168.1 34347.2 21165.4 34347.8 21162.6ZM34356.1 21122.2 34360.2 21102C34360.8 21099.2 34363.5 21097.4 34366.3 21097.9 34369.1 21098.5 34370.9 21101.2 34370.3 21104L34366.2 21124.2C34365.6 21127 34362.9 21128.8 34360.1 21128.2 34357.3 21127.7 34355.5 21124.9 34356.1 21122.2ZM34364.3 21081.7 34368.5 21061.5C34369.1 21058.8 34371.8 21057 34374.6 21057.5 34377.4 21058.1 34379.2 21060.8 34378.6 21063.6L34374.5 21083.8C34373.9 21086.6 34371.2 21088.4 34368.4 21087.8 34365.6 21087.3 34363.8 21084.5 34364.3 21081.7ZM34372.6 21041.3 34376.8 21021.1C34377.3 21018.3 34380.1 21016.5 34382.8 21017.1 34385.6 21017.7 34387.4 21020.4 34386.9 21023.2L34382.7 21043.4C34382.2 21046.2 34379.4 21048 34376.6 21047.4 34373.8 21046.8 34372 21044.1 34372.6 21041.3ZM34380.9 21000.9 34385 20980.7C34385.6 20977.9 34388.3 20976.1 34391.1 20976.7 34393.9 20977.3 34395.7 20980 34395.1 20982.8L34391 21003C34390.4 21005.8 34387.7 21007.6 34384.9 21007 34382.1 21006.4 34380.3 21003.7 34380.9 21000.9ZM34389.2 20960.5 34389.9 20956.7C34390.5 20953.9 34393.2 20952.1 34396 20952.6 34398.8 20953.2 34400.6 20955.9 34400.1 20958.7L34399.3 20962.6C34398.7 20965.4 34396 20967.2 34393.2 20966.6 34390.4 20966 34388.6 20963.3 34389.2 20960.5Z" fill="#1F497D" fill-rule="nonzero" fill-opacity="1"/></g><g><text fill="#595959" fill-opacity="1" font-family="Calibri,Calibri_MSFontService,sans-serif" font-style="normal" font-variant="normal" font-weight="400" font-stretch="normal" font-size="41" text-anchor="start" direction="ltr" writing-mode="lr-tb" unicode-bidi="normal" text-decoration="none" transform="matrix(1 0 0 1 30934.6 21917)">0</text></g><g><text fill="#595959" fill-opacity="1" font-family="Calibri,Calibri_MSFontService,sans-serif" font-style="normal" font-variant="normal" font-weight="400" font-stretch="normal" font-size="41" text-anchor="start" direction="ltr" writing-mode="lr-tb" unicode-bidi="normal" text-decoration="none" transform="matrix(1 0 0 1 30934.6 21730)">2</text></g><g><text fill="#595959" fill-opacity="1" font-family="Calibri,Calibri_MSFontService,sans-serif" font-style="normal" font-variant="normal" font-weight="400" font-stretch="normal" font-size="41" text-anchor="start" direction="ltr" writing-mode="lr-tb" unicode-bidi="normal" text-decoration="none" transform="matrix(1 0 0 1 30934.6 21543)">4</text></g><g><text fill="#595959" fill-opacity="1" font-family="Calibri,Calibri_MSFontService,sans-serif" font-style="normal" font-variant="normal" font-weight="400" font-stretch="normal" font-size="41" text-anchor="start" direction="ltr" writing-mode="lr-tb" unicode-bidi="normal" text-decoration="none" transform="matrix(1 0 0 1 30934.6 21356)">6</text></g><g><text fill="#595959" fill-opacity="1" font-family="Calibri,Calibri_MSFontService,sans-serif" font-style="normal" font-variant="normal" font-weight="400" font-stretch="normal" font-size="41" text-anchor="start" direction="ltr" writing-mode="lr-tb" unicode-bidi="normal" text-decoration="none" transform="matrix(1 0 0 1 30934.6 21169)">8</text></g><g><text fill="#595959" fill-opacity="1" font-family="Calibri,Calibri_MSFontService,sans-serif" font-style="normal" font-variant="normal" font-weight="400" font-stretch="normal" font-size="41" text-anchor="start" direction="ltr" writing-mode="lr-tb" unicode-bidi="normal" text-decoration="none" transform="matrix(1 0 0 1 30913.7 20982)">10</text></g><g><text fill="#595959" fill-opacity="1" font-family="Calibri,Calibri_MSFontService,sans-serif" font-style="normal" font-variant="normal" font-weight="400" font-stretch="normal" font-size="41" text-anchor="start" direction="ltr" writing-mode="lr-tb" unicode-bidi="normal" text-decoration="none" transform="matrix(1 0 0 1 30913.7 20795)">12</text></g><g><text fill="#595959" fill-opacity="1" font-family="Calibri,Calibri_MSFontService,sans-serif" font-style="normal" font-variant="normal" font-weight="400" font-stretch="normal" font-size="41" text-anchor="start" direction="ltr" writing-mode="lr-tb" unicode-bidi="normal" text-decoration="none" transform="matrix(1 0 0 1 31037.3 21972)">1</text></g><g><text fill="#595959" fill-opacity="1" font-family="Calibri,Calibri_MSFontService,sans-serif" font-style="normal" font-variant="normal" font-weight="400" font-stretch="normal" font-size="41" text-anchor="start" direction="ltr" writing-mode="lr-tb" unicode-bidi="normal" text-decoration="none" transform="matrix(1 0 0 1 31145.2 21972)">2</text></g><g><text fill="#595959" fill-opacity="1" font-family="Calibri,Calibri_MSFontService,sans-serif" font-style="normal" font-variant="normal" font-weight="400" font-stretch="normal" font-size="41" text-anchor="start" direction="ltr" writing-mode="lr-tb" unicode-bidi="normal" text-decoration="none" transform="matrix(1 0 0 1 31253.2 21972)">3</text></g><g><text fill="#595959" fill-opacity="1" font-family="Calibri,Calibri_MSFontService,sans-serif" font-style="normal" font-variant="normal" font-weight="400" font-stretch="normal" font-size="41" text-anchor="start" direction="ltr" writing-mode="lr-tb" unicode-bidi="normal" text-decoration="none" transform="matrix(1 0 0 1 31361.1 21972)">4</text></g><g><text fill="#595959" fill-opacity="1" font-family="Calibri,Calibri_MSFontService,sans-serif" font-style="normal" font-variant="normal" font-weight="400" font-stretch="normal" font-size="41" text-anchor="start" direction="ltr" writing-mode="lr-tb" unicode-bidi="normal" text-decoration="none" transform="matrix(1 0 0 1 31469.1 21972)">5</text></g><g><text fill="#595959" fill-opacity="1" font-family="Calibri,Calibri_MSFontService,sans-serif" font-style="normal" font-variant="normal" font-weight="400" font-stretch="normal" font-size="41" text-anchor="start" direction="ltr" writing-mode="lr-tb" unicode-bidi="normal" text-decoration="none" transform="matrix(1 0 0 1 31577.1 21972)">6</text></g><g><text fill="#595959" fill-opacity="1" font-family="Calibri,Calibri_MSFontService,sans-serif" font-style="normal" font-variant="normal" font-weight="400" font-stretch="normal" font-size="41" text-anchor="start" direction="ltr" writing-mode="lr-tb" unicode-bidi="normal" text-decoration="none" transform="matrix(1 0 0 1 31685 21972)">7</text></g><g><text fill="#595959" fill-opacity="1" font-family="Calibri,Calibri_MSFontService,sans-serif" font-style="normal" font-variant="normal" font-weight="400" font-stretch="normal" font-size="41" text-anchor="start" direction="ltr" writing-mode="lr-tb" unicode-bidi="normal" text-decoration="none" transform="matrix(1 0 0 1 31793 21972)">8</text></g><g><text fill="#595959" fill-opacity="1" font-family="Calibri,Calibri_MSFontService,sans-serif" font-style="normal" font-variant="normal" font-weight="400" font-stretch="normal" font-size="41" text-anchor="start" direction="ltr" writing-mode="lr-tb" unicode-bidi="normal" text-decoration="none" transform="matrix(1 0 0 1 31900.9 21972)">9</text></g><g><text fill="#595959" fill-opacity="1" font-family="Calibri,Calibri_MSFontService,sans-serif" font-style="normal" font-variant="normal" font-weight="400" font-stretch="normal" font-size="41" text-anchor="start" direction="ltr" writing-mode="lr-tb" unicode-bidi="normal" text-decoration="none" transform="matrix(1 0 0 1 31998.5 21972)">10</text></g><g><text fill="#595959" fill-opacity="1" font-family="Calibri,Calibri_MSFontService,sans-serif" font-style="normal" font-variant="normal" font-weight="400" font-stretch="normal" font-size="41" text-anchor="start" direction="ltr" writing-mode="lr-tb" unicode-bidi="normal" text-decoration="none" transform="matrix(1 0 0 1 32106.4 21972)">11</text></g><g><text fill="#595959" fill-opacity="1" font-family="Calibri,Calibri_MSFontService,sans-serif" font-style="normal" font-variant="normal" font-weight="400" font-stretch="normal" font-size="41" text-anchor="start" direction="ltr" writing-mode="lr-tb" unicode-bidi="normal" text-decoration="none" transform="matrix(1 0 0 1 32214.4 21972)">12</text></g><g><text fill="#595959" fill-opacity="1" font-family="Calibri,Calibri_MSFontService,sans-serif" font-style="normal" font-variant="normal" font-weight="400" font-stretch="normal" font-size="41" text-anchor="start" direction="ltr" writing-mode="lr-tb" unicode-bidi="normal" text-decoration="none" transform="matrix(1 0 0 1 32322.3 21972)">13</text></g><g><text fill="#595959" fill-opacity="1" font-family="Calibri,Calibri_MSFontService,sans-serif" font-style="normal" font-variant="normal" font-weight="400" font-stretch="normal" font-size="41" text-anchor="start" direction="ltr" writing-mode="lr-tb" unicode-bidi="normal" text-decoration="none" transform="matrix(1 0 0 1 32430.3 21972)">14</text></g><g><text fill="#595959" fill-opacity="1" font-family="Calibri,Calibri_MSFontService,sans-serif" font-style="normal" font-variant="normal" font-weight="400" font-stretch="normal" font-size="41" text-anchor="start" direction="ltr" writing-mode="lr-tb" unicode-bidi="normal" text-decoration="none" transform="matrix(1 0 0 1 32538.3 21972)">15</text></g><g><text fill="#595959" fill-opacity="1" font-family="Calibri,Calibri_MSFontService,sans-serif" font-style="normal" font-variant="normal" font-weight="400" font-stretch="normal" font-size="41" text-anchor="start" direction="ltr" writing-mode="lr-tb" unicode-bidi="normal" text-decoration="none" transform="matrix(1 0 0 1 32646.2 21972)">16</text></g><g><text fill="#595959" fill-opacity="1" font-family="Calibri,Calibri_MSFontService,sans-serif" font-style="normal" font-variant="normal" font-weight="400" font-stretch="normal" font-size="41" text-anchor="start" direction="ltr" writing-mode="lr-tb" unicode-bidi="normal" text-decoration="none" transform="matrix(1 0 0 1 32754.2 21972)">17</text></g><g><text fill="#595959" fill-opacity="1" font-family="Calibri,Calibri_MSFontService,sans-serif" font-style="normal" font-variant="normal" font-weight="400" font-stretch="normal" font-size="41" text-anchor="start" direction="ltr" writing-mode="lr-tb" unicode-bidi="normal" text-decoration="none" transform="matrix(1 0 0 1 32862.1 21972)">18</text></g><g><text fill="#595959" fill-opacity="1" font-family="Calibri,Calibri_MSFontService,sans-serif" font-style="normal" font-variant="normal" font-weight="400" font-stretch="normal" font-size="41" text-anchor="start" direction="ltr" writing-mode="lr-tb" unicode-bidi="normal" text-decoration="none" transform="matrix(1 0 0 1 32970.1 21972)">19</text></g><g><text fill="#595959" fill-opacity="1" font-family="Calibri,Calibri_MSFontService,sans-serif" font-style="normal" font-variant="normal" font-weight="400" font-stretch="normal" font-size="41" text-anchor="start" direction="ltr" writing-mode="lr-tb" unicode-bidi="normal" text-decoration="none" transform="matrix(1 0 0 1 33078.1 21972)">20</text></g><g><text fill="#595959" fill-opacity="1" font-family="Calibri,Calibri_MSFontService,sans-serif" font-style="normal" font-variant="normal" font-weight="400" font-stretch="normal" font-size="41" text-anchor="start" direction="ltr" writing-mode="lr-tb" unicode-bidi="normal" text-decoration="none" transform="matrix(1 0 0 1 33186 21972)">21</text></g><g><text fill="#595959" fill-opacity="1" font-family="Calibri,Calibri_MSFontService,sans-serif" font-style="normal" font-variant="normal" font-weight="400" font-stretch="normal" font-size="41" text-anchor="start" direction="ltr" writing-mode="lr-tb" unicode-bidi="normal" text-decoration="none" transform="matrix(1 0 0 1 33294 21972)">22</text></g><g><text fill="#595959" fill-opacity="1" font-family="Calibri,Calibri_MSFontService,sans-serif" font-style="normal" font-variant="normal" font-weight="400" font-stretch="normal" font-size="41" text-anchor="start" direction="ltr" writing-mode="lr-tb" unicode-bidi="normal" text-decoration="none" transform="matrix(1 0 0 1 33402 21972)">23</text></g><g><text fill="#595959" fill-opacity="1" font-family="Calibri,Calibri_MSFontService,sans-serif" font-style="normal" font-variant="normal" font-weight="400" font-stretch="normal" font-size="41" text-anchor="start" direction="ltr" writing-mode="lr-tb" unicode-bidi="normal" text-decoration="none" transform="matrix(1 0 0 1 33509.9 21972)">24</text></g><g><text fill="#595959" fill-opacity="1" font-family="Calibri,Calibri_MSFontService,sans-serif" font-style="normal" font-variant="normal" font-weight="400" font-stretch="normal" font-size="41" text-anchor="start" direction="ltr" writing-mode="lr-tb" unicode-bidi="normal" text-decoration="none" transform="matrix(1 0 0 1 33617.9 21972)">25</text></g><g><text fill="#595959" fill-opacity="1" font-family="Calibri,Calibri_MSFontService,sans-serif" font-style="normal" font-variant="normal" font-weight="400" font-stretch="normal" font-size="41" text-anchor="start" direction="ltr" writing-mode="lr-tb" unicode-bidi="normal" text-decoration="none" transform="matrix(1 0 0 1 33725.8 21972)">26</text></g><g><text fill="#595959" fill-opacity="1" font-family="Calibri,Calibri_MSFontService,sans-serif" font-style="normal" font-variant="normal" font-weight="400" font-stretch="normal" font-size="41" text-anchor="start" direction="ltr" writing-mode="lr-tb" unicode-bidi="normal" text-decoration="none" transform="matrix(1 0 0 1 33833.8 21972)">27</text></g><g><text fill="#595959" fill-opacity="1" font-family="Calibri,Calibri_MSFontService,sans-serif" font-style="normal" font-variant="normal" font-weight="400" font-stretch="normal" font-size="41" text-anchor="start" direction="ltr" writing-mode="lr-tb" unicode-bidi="normal" text-decoration="none" transform="matrix(1 0 0 1 33941.8 21972)">28</text></g><g><text fill="#595959" fill-opacity="1" font-family="Calibri,Calibri_MSFontService,sans-serif" font-style="normal" font-variant="normal" font-weight="400" font-stretch="normal" font-size="41" text-anchor="start" direction="ltr" writing-mode="lr-tb" unicode-bidi="normal" text-decoration="none" transform="matrix(1 0 0 1 34049.7 21972)">29</text></g><g><text fill="#595959" fill-opacity="1" font-family="Calibri,Calibri_MSFontService,sans-serif" font-style="normal" font-variant="normal" font-weight="400" font-stretch="normal" font-size="41" text-anchor="start" direction="ltr" writing-mode="lr-tb" unicode-bidi="normal" text-decoration="none" transform="matrix(1 0 0 1 34157.7 21972)">30</text></g><g><text fill="#595959" fill-opacity="1" font-family="Calibri,Calibri_MSFontService,sans-serif" font-style="normal" font-variant="normal" font-weight="400" font-stretch="normal" font-size="41" text-anchor="start" direction="ltr" writing-mode="lr-tb" unicode-bidi="normal" text-decoration="none" transform="matrix(1 0 0 1 34265.6 21972)">31</text></g><g><text fill="#595959" fill-opacity="1" font-family="Calibri,Calibri_MSFontService,sans-serif" font-style="normal" font-variant="normal" font-weight="400" font-stretch="normal" font-size="41" text-anchor="start" direction="ltr" writing-mode="lr-tb" unicode-bidi="normal" text-decoration="none" transform="matrix(1 0 0 1 34373.6 21972)">32</text></g><g><text fill="#595959" fill-opacity="1" font-family="Calibri,Calibri_MSFontService,sans-serif" font-style="normal" font-variant="normal" font-weight="400" font-stretch="normal" font-size="64" text-anchor="start" direction="ltr" writing-mode="lr-tb" unicode-bidi="normal" text-decoration="none" transform="matrix(1 0 0 1 32021 20711)">Ragtime corpus average mag +/</text></g><g><text fill="#595959" fill-opacity="1" font-family="Calibri,Calibri_MSFontService,sans-serif" font-style="normal" font-variant="normal" font-weight="400" font-stretch="normal" font-size="64" text-anchor="start" direction="ltr" writing-mode="lr-tb" unicode-bidi="normal" text-decoration="none" transform="matrix(1 0 0 1 32840.9 20711)">-</text></g><g><text fill="#595959" fill-opacity="1" font-family="Calibri,Calibri_MSFontService,sans-serif" font-style="normal" font-variant="normal" font-weight="400" font-stretch="normal" font-size="64" text-anchor="start" direction="ltr" writing-mode="lr-tb" unicode-bidi="normal" text-decoration="none" transform="matrix(1 0 0 1 32875.1 20711)">standard deviation</text></g><rect x="30884.5" y="20615.5" width="3615" height="1398" stroke="#D9D9D9" stroke-width="3.4375" stroke-linecap="butt" stroke-linejoin="round" stroke-miterlimit="10" stroke-opacity="1" fill="none"/></g></g></svg>